<svg xmlns="http://www.w3.org/2000/svg" width="1536" height="1024" viewBox="0 0 1536 1024">
  <rect width="100%" height="100%" fill="#FFFFFF"/>
  <path d="M 964.73 629.80 L 964.47 629.93 L 963.94 630.46 L 963.54 630.59 L 963.15 630.72 L 962.22 630.72 L 961.43 630.86 L 961.17 631.12 L 961.17 631.25 L 960.77 631.65 L 960.51 631.78 L 960.24 631.78 L 959.71 632.04 L 959.45 632.31 L 959.45 632.44 L 959.05 632.84 L 958.66 632.97 L 958.13 633.10 L 958.13 633.50 L 957.87 633.76 L 957.60 633.89 L 957.07 634.02 L 956.94 634.55 L 956.68 634.82 L 956.02 635.08 L 956.02 635.48 L 955.89 635.74 L 955.75 635.87 L 955.09 636.14 L 954.96 636.40 L 954.96 636.80 L 954.57 637.19 L 954.17 637.32 L 954.04 637.59 L 954.04 637.98 L 953.91 638.38 L 953.77 638.78 L 953.11 639.44 L 952.98 639.83 L 952.85 640.49 L 952.72 641.81 L 952.72 645.11 L 952.85 646.03 L 952.98 646.56 L 953.11 646.83 L 953.25 647.09 L 953.77 647.75 L 953.91 648.15 L 954.04 649.07 L 954.17 649.33 L 954.57 649.47 L 954.96 649.86 L 954.96 650.26 L 955.09 650.52 L 955.23 650.65 L 955.62 650.79 L 955.89 651.05 L 956.02 651.31 L 956.15 651.71 L 956.55 651.84 L 956.94 652.24 L 957.07 652.63 L 957.60 652.77 L 958.13 653.29 L 958.26 653.69 L 958.66 653.69 L 959.05 653.82 L 959.32 653.95 L 959.58 654.09 L 959.98 654.61 L 960.51 654.88 L 960.90 654.88 L 961.17 655.01 L 961.43 655.27 L 961.56 655.54 L 961.30 655.93 L 963.28 655.80 L 963.94 655.93 L 964.33 656.07 L 964.73 656.20 L 964.99 656.33 L 965.52 656.73 L 966.18 656.86 L 969.75 656.86 L 970.67 656.73 L 971.73 656.07 L 972.25 655.93 L 973.04 655.93 L 973.84 655.80 L 974.10 655.54 L 974.10 655.41 L 974.36 655.14 L 974.63 655.01 L 974.89 654.88 L 975.29 654.75 L 975.95 654.61 L 976.08 654.22 L 976.21 654.09 L 976.48 653.95 L 976.74 653.82 L 977.00 653.82 L 977.27 653.69 L 978.32 652.63 L 978.72 652.50 L 978.85 652.37 L 978.98 651.97 L 979.64 651.45 L 979.91 651.18 L 980.17 650.52 L 980.83 649.99 L 981.10 649.73 L 981.23 649.20 L 981.23 648.67 L 981.36 648.41 L 981.89 648.01 L 982.02 647.88 L 982.15 647.62 L 982.15 646.69 L 982.28 646.17 L 982.42 645.90 L 982.55 645.64 L 983.08 645.11 L 983.21 644.58 L 983.21 641.28 L 982.42 640.49 L 982.28 640.23 L 982.28 639.17 L 982.15 638.51 L 981.89 638.25 L 981.62 638.25 L 981.36 637.98 L 981.23 637.72 L 981.23 637.19 L 980.96 636.93 L 980.30 636.40 L 980.17 636.00 L 979.78 635.48 L 978.98 634.82 L 978.72 634.42 L 978.72 634.29 L 978.59 634.16 L 978.46 634.16 L 978.06 633.89 L 977.66 633.50 L 977.66 633.36 L 977.27 632.97 L 977.00 632.84 L 976.48 632.84 L 976.21 632.70 L 975.95 632.44 L 975.82 632.04 L 975.16 631.91 L 974.89 631.78 L 974.63 631.65 L 974.10 630.99 L 973.84 630.86 L 972.91 630.72 L 971.99 630.72 L 971.59 630.59 L 971.33 630.46 L 970.80 629.93 L 970.54 629.80 Z M 998.12 615.94 L 998.39 616.07 L 998.65 615.81 Z M 588.03 525.00 L 587.37 525.26 L 585.92 525.26 L 585.53 525.40 L 585.00 525.92 L 584.60 526.06 L 584.21 526.19 L 583.15 526.32 L 581.70 526.32 L 581.43 526.45 L 580.91 526.98 L 580.64 527.11 L 580.11 527.24 L 578.93 527.38 L 577.47 527.38 L 577.21 527.51 L 576.68 528.17 L 576.42 528.30 L 575.63 528.43 L 573.91 528.56 L 573.78 528.96 L 573.51 529.22 L 573.25 529.36 L 572.59 529.49 L 571.80 529.62 L 571.67 530.02 L 571.27 530.41 L 570.74 530.41 L 570.21 530.68 L 569.42 531.60 L 569.03 531.73 L 568.76 532.00 L 568.23 532.66 L 567.84 532.79 L 567.71 532.92 L 567.57 533.32 L 567.18 533.71 L 566.65 533.84 L 566.52 534.11 L 566.25 534.77 L 565.73 535.16 L 565.59 535.30 L 565.46 535.56 L 565.33 535.82 L 565.33 536.35 L 565.20 536.62 L 564.54 537.14 L 564.41 537.41 L 564.27 538.86 L 564.14 540.97 L 564.14 543.48 L 564.41 545.06 L 564.41 547.44 L 564.54 547.97 L 564.93 548.63 L 565.07 549.02 L 565.07 550.21 L 565.33 551.13 L 565.46 552.06 L 565.46 553.38 L 565.59 553.77 L 565.73 554.04 L 566.12 554.57 L 566.25 554.96 L 566.39 555.75 L 566.52 556.81 L 566.52 558.26 L 566.78 558.79 L 567.05 558.92 L 567.18 559.19 L 567.31 559.71 L 567.44 560.24 L 567.44 561.83 L 567.57 563.54 L 567.84 564.20 L 567.97 564.20 L 568.23 564.47 L 568.37 564.73 L 568.50 565.13 L 568.63 566.58 L 568.63 569.35 L 568.76 569.75 L 569.29 570.27 L 569.42 570.54 L 569.55 570.80 L 569.69 573.44 L 569.69 576.21 L 569.82 576.74 L 570.35 577.27 L 570.48 577.53 L 570.61 577.93 L 570.61 580.57 L 570.74 583.34 L 570.87 583.74 L 571.53 584.40 L 571.67 584.79 L 571.80 587.83 L 571.80 591.52 L 571.93 591.79 L 572.19 592.05 L 572.33 592.32 L 572.46 592.71 L 572.59 594.82 L 572.59 602.08 L 572.46 602.35 L 572.33 602.61 L 571.93 603.01 L 571.80 603.27 L 571.67 605.78 L 571.67 608.29 L 571.53 608.55 L 571.40 608.81 L 570.74 609.47 L 570.61 610.66 L 570.74 611.45 L 570.61 611.98 L 570.48 612.38 L 570.21 612.64 L 569.82 612.77 L 569.55 613.83 L 569.69 614.36 L 569.55 615.02 L 569.42 615.41 L 569.03 615.81 L 568.89 615.81 L 568.63 616.07 L 568.63 616.73 L 568.50 617.26 L 568.37 617.53 L 567.97 617.92 L 567.57 618.05 L 567.57 618.85 L 567.44 619.24 L 567.31 619.51 L 566.65 620.03 L 566.39 620.96 L 566.25 621.22 L 566.12 621.35 L 565.59 621.75 L 565.46 622.01 L 565.33 622.54 L 565.20 622.80 L 564.80 623.20 L 564.41 623.33 L 564.41 623.86 L 564.27 624.26 L 564.01 624.52 L 563.48 624.92 L 562.96 625.97 L 562.69 626.24 L 562.30 626.37 L 562.16 626.50 L 562.03 626.76 L 562.03 626.90 L 561.90 627.16 L 561.77 627.29 L 561.11 627.56 L 560.98 627.95 L 560.45 628.48 L 560.05 628.61 L 558.86 629.80 L 558.20 630.06 L 557.68 630.72 L 557.41 630.86 L 556.88 630.99 L 556.75 631.38 L 556.49 631.65 L 556.22 631.78 L 555.83 631.78 L 555.43 632.18 L 555.43 632.31 L 555.04 632.70 L 554.77 632.84 L 554.51 632.97 L 553.85 633.10 L 553.72 633.50 L 553.45 633.76 L 553.19 633.89 L 552.66 633.89 L 552.40 634.16 L 552.26 634.16 L 552.13 634.29 L 552.13 634.42 L 551.87 634.68 L 551.47 634.95 L 550.68 634.95 L 550.15 635.08 L 549.36 635.87 L 549.10 636.00 L 548.44 636.00 L 548.04 636.14 L 547.78 636.27 L 547.64 636.40 L 547.25 636.93 L 546.98 637.06 L 546.32 637.06 L 545.53 637.19 L 545.27 637.46 L 545.27 637.59 L 545.00 637.85 L 544.74 637.98 L 544.08 638.12 L 543.42 638.12 L 543.02 638.25 L 542.76 638.38 L 542.23 638.91 L 541.97 639.04 L 541.70 639.17 L 541.04 639.30 L 540.25 639.30 L 539.99 639.44 L 539.86 639.57 L 539.46 640.10 L 539.07 640.23 L 538.67 640.36 L 537.22 640.36 L 536.82 640.76 L 536.82 640.89 L 536.56 641.15 L 536.16 641.28 L 535.50 641.42 L 534.05 641.42 L 533.79 641.55 L 533.52 641.81 L 533.52 641.94 L 533.39 642.08 L 533.13 642.21 L 532.86 642.34 L 532.20 642.47 L 530.62 642.47 L 530.35 642.60 L 530.09 643.00 L 529.83 643.13 L 529.43 643.26 L 529.03 643.40 L 527.19 643.40 L 525.87 643.53 L 525.60 643.66 L 524.94 644.32 L 524.41 644.45 L 522.17 644.58 L 519.79 644.58 L 519.53 644.71 L 518.87 645.37 L 518.47 645.51 L 515.84 645.64 L 511.74 645.64 L 511.35 645.77 L 510.56 646.17 L 510.16 646.30 L 509.63 646.43 L 508.97 646.56 L 506.73 646.69 L 494.72 646.69 L 491.95 646.56 L 490.10 646.43 L 489.31 646.30 L 488.78 646.17 L 488.12 645.77 L 487.19 645.64 L 484.95 645.51 L 482.05 645.51 L 481.78 645.37 L 481.52 645.24 L 481.12 644.71 L 480.86 644.58 L 479.14 644.45 L 476.63 644.45 L 475.97 644.32 L 475.71 644.19 L 475.45 643.92 L 475.45 643.79 L 475.18 643.53 L 473.73 643.53 L 472.54 643.40 L 472.15 643.26 L 471.75 643.13 L 471.35 642.60 L 471.09 642.47 L 470.17 642.47 L 469.11 642.34 L 468.85 642.21 L 468.32 641.55 L 467.13 641.42 L 466.08 641.28 L 465.68 641.15 L 465.42 641.02 L 465.02 640.49 L 464.10 640.36 L 463.44 640.23 L 463.17 640.10 L 462.91 639.96 L 462.78 639.83 L 462.64 639.44 L 462.38 639.44 L 462.25 639.30 L 461.59 639.17 L 460.80 639.17 L 459.87 638.25 L 458.82 638.25 L 458.29 637.98 L 458.02 637.85 L 457.89 637.72 L 457.76 637.32 L 457.50 637.19 L 456.70 637.19 L 455.91 636.80 L 455.65 636.53 L 455.65 636.40 L 455.38 636.14 L 454.86 636.14 L 454.46 636.00 L 454.20 635.87 L 453.67 635.21 L 453.54 635.08 L 453.27 634.95 L 452.48 634.95 L 451.95 634.29 L 451.82 634.16 L 451.56 634.02 L 450.90 633.89 L 450.63 633.76 L 450.24 633.36 L 450.10 632.97 L 449.71 632.97 L 449.31 632.84 L 449.05 632.70 L 448.78 632.44 L 448.78 632.31 L 448.52 632.04 L 447.60 631.65 L 447.33 631.52 L 447.20 631.38 L 447.07 630.99 L 446.94 630.86 L 446.67 630.72 L 446.14 630.72 L 445.88 630.46 L 445.75 630.06 L 445.62 629.93 L 445.35 629.80 L 445.09 629.80 L 444.30 629.01 L 443.51 628.48 L 442.98 627.82 L 442.71 627.56 L 442.32 627.42 L 441.92 627.03 L 441.92 626.90 L 441.53 626.50 L 441.26 626.50 L 441.00 626.37 L 440.73 626.10 L 440.47 625.44 L 440.07 625.44 L 439.81 625.31 L 439.68 625.18 L 439.55 624.92 L 439.55 624.52 L 439.28 624.26 L 439.02 624.26 L 438.62 623.86 L 438.49 623.60 L 438.49 623.33 L 438.23 622.94 L 437.96 622.67 L 437.17 621.88 L 436.77 621.48 L 436.11 620.96 L 436.11 620.82 L 435.72 620.43 L 435.59 620.43 L 435.32 620.16 L 435.19 619.90 L 435.19 619.11 L 434.66 618.98 L 434.40 618.71 L 434.27 618.45 L 434.27 618.05 L 433.87 617.66 L 433.74 617.66 L 433.34 617.26 L 433.08 616.87 L 432.95 616.47 L 432.95 615.94 L 432.68 615.94 L 432.29 615.55 L 432.15 615.28 L 432.02 613.96 L 431.76 613.70 L 431.63 613.70 L 431.23 613.30 L 431.10 612.91 L 430.97 612.51 L 430.83 611.59 L 430.31 611.19 L 430.17 610.93 L 430.04 610.53 L 430.04 609.74 L 429.91 609.21 L 429.78 608.95 L 429.12 608.29 L 428.99 607.76 L 428.99 606.57 L 428.85 605.78 L 428.72 605.51 L 428.59 605.38 L 428.46 605.38 L 428.19 605.12 L 428.06 604.72 L 427.93 604.06 L 427.80 603.14 L 427.67 601.95 L 427.67 600.63 L 427.53 600.10 L 427.27 599.84 L 427.14 599.44 L 426.87 598.65 L 426.74 596.27 L 426.87 590.86 L 426.74 588.62 L 426.74 587.83 L 426.87 586.24 L 427.01 585.58 L 427.14 585.32 L 427.53 584.79 L 427.67 584.40 L 427.80 584.00 L 427.80 581.76 L 427.93 581.10 L 428.06 580.57 L 428.19 580.30 L 428.72 579.78 L 428.85 579.51 L 428.99 578.59 L 428.99 577.53 L 429.12 577.00 L 429.65 576.48 L 429.78 576.21 L 429.91 575.95 L 430.04 575.55 L 430.04 574.76 L 430.17 574.50 L 430.31 574.23 L 430.97 573.57 L 430.97 572.78 L 431.10 572.25 L 431.23 571.99 L 431.63 571.59 L 432.02 571.46 L 432.02 570.67 L 432.15 570.41 L 433.08 569.48 L 433.21 569.22 L 433.21 568.56 L 433.61 568.16 L 433.74 568.16 L 434.00 567.90 L 434.13 567.37 L 434.27 567.11 L 435.06 566.45 L 435.19 566.31 L 435.32 566.05 L 435.32 565.65 L 435.45 565.39 L 435.59 565.26 L 436.25 564.99 L 436.25 564.33 L 436.38 564.07 L 436.64 563.81 L 436.64 563.67 L 436.77 563.54 L 437.30 563.15 L 437.43 562.88 L 437.43 562.35 L 437.83 561.96 L 438.23 561.83 L 438.36 561.56 L 438.36 561.17 L 439.02 560.64 L 439.28 560.37 L 439.41 559.98 L 439.94 559.45 L 440.07 559.45 L 440.47 558.92 L 440.73 558.66 L 442.32 557.34 L 444.96 554.43 L 448.12 551.27 L 448.65 551.00 L 449.31 550.21 L 449.84 550.08 L 449.97 549.68 L 450.37 549.29 L 450.63 549.15 L 451.16 549.02 L 451.29 548.49 L 451.42 548.36 L 451.69 548.23 L 452.08 548.23 L 452.35 547.97 L 452.88 547.31 L 453.27 547.18 L 453.40 547.04 L 454.20 546.12 L 454.99 545.72 L 455.52 545.06 L 455.78 544.93 L 456.57 544.80 L 456.57 544.54 L 456.97 544.14 L 457.36 544.01 L 457.76 543.88 L 458.16 543.88 L 458.42 543.74 L 458.55 543.35 L 458.82 543.08 L 459.08 542.95 L 459.48 542.95 L 459.74 542.82 L 460.53 542.03 L 460.80 541.90 L 461.06 541.76 L 461.85 541.63 L 461.98 541.24 L 462.12 541.10 L 462.38 540.97 L 463.04 540.71 L 463.44 540.71 L 463.70 540.44 L 464.23 539.78 L 464.76 539.78 L 465.02 539.65 L 465.81 538.99 L 466.21 538.73 L 466.87 538.73 L 467.26 538.60 L 467.79 538.33 L 468.05 538.07 L 468.19 537.54 L 468.19 536.48 L 468.05 535.82 L 467.92 535.56 L 467.79 535.30 L 466.87 534.11 L 466.47 533.71 L 465.15 533.71 L 464.89 533.98 L 464.89 534.11 L 464.62 534.37 L 464.36 534.50 L 464.10 534.64 L 463.70 534.77 L 462.78 534.77 L 462.51 534.90 L 462.12 535.30 L 461.85 535.43 L 461.59 535.56 L 461.19 535.69 L 460.53 535.82 L 459.74 535.96 L 459.21 536.62 L 458.68 536.75 L 458.16 536.88 L 457.10 537.01 L 456.57 537.67 L 456.31 537.80 L 455.65 537.80 L 455.12 538.07 L 454.59 538.73 L 454.33 538.86 L 454.06 538.99 L 453.40 538.99 L 453.27 539.39 L 452.88 539.78 L 452.22 539.92 L 451.56 540.18 L 451.29 540.71 L 451.16 540.84 L 450.90 540.97 L 450.37 540.97 L 450.10 541.10 L 449.84 541.37 L 449.84 541.50 L 449.58 541.76 L 449.18 542.03 L 448.78 542.16 L 448.12 542.29 L 448.12 542.56 L 447.73 542.95 L 447.33 543.08 L 446.67 543.22 L 446.41 543.35 L 446.28 543.48 L 445.75 544.14 L 445.22 544.14 L 444.96 544.27 L 444.69 544.54 L 444.69 544.67 L 444.30 545.06 L 443.37 545.46 L 443.11 545.72 L 443.11 545.86 L 442.71 546.25 L 442.45 546.38 L 441.92 546.52 L 441.79 546.91 L 441.39 547.31 L 440.87 547.31 L 440.60 547.57 L 440.60 547.84 L 440.21 548.23 L 439.94 548.36 L 439.68 548.36 L 438.49 549.55 L 438.09 549.68 L 437.83 549.95 L 437.30 550.61 L 436.91 550.61 L 436.64 550.74 L 436.51 551.27 L 436.25 551.53 L 435.85 551.53 L 435.72 551.66 L 435.45 551.66 L 435.32 552.06 L 434.93 552.45 L 434.66 552.59 L 434.40 552.59 L 433.87 553.25 L 433.61 553.51 L 433.21 553.77 L 432.55 554.04 L 432.42 554.43 L 432.02 554.83 L 431.63 554.96 L 431.36 554.96 L 431.23 555.49 L 430.97 555.75 L 430.57 555.89 L 430.31 555.89 L 430.17 556.41 L 429.78 556.81 L 429.51 556.81 L 429.25 556.94 L 429.12 557.21 L 429.12 557.60 L 428.85 557.87 L 428.59 557.87 L 428.33 558.00 L 428.19 558.53 L 427.53 559.05 L 427.27 559.32 L 427.14 559.71 L 426.48 560.24 L 426.21 560.51 L 424.10 562.75 L 423.71 563.28 L 423.57 563.67 L 423.44 563.81 L 422.78 564.33 L 422.78 564.73 L 422.65 564.99 L 422.52 565.13 L 421.86 565.39 L 421.86 565.79 L 421.73 566.05 L 421.33 566.45 L 420.93 566.58 L 420.80 567.11 L 420.67 567.37 L 420.01 567.90 L 419.75 568.16 L 419.62 568.43 L 419.62 569.09 L 419.22 569.48 L 418.96 569.61 L 418.82 569.88 L 418.69 570.01 L 418.69 570.41 L 418.43 570.80 L 418.16 571.07 L 417.77 571.20 L 417.64 571.46 L 417.50 571.73 L 417.50 572.25 L 417.37 572.52 L 417.24 572.65 L 416.84 572.78 L 416.71 572.91 L 416.58 573.18 L 416.45 574.10 L 416.32 574.36 L 416.05 574.63 L 415.66 574.76 L 415.52 575.55 L 415.39 575.82 L 415.26 576.08 L 414.73 576.48 L 414.47 576.74 L 414.34 577.14 L 414.34 577.66 L 414.20 577.93 L 413.94 578.19 L 413.54 578.32 L 413.41 578.59 L 413.28 579.25 L 413.28 579.91 L 413.15 580.17 L 412.36 580.96 L 412.36 581.89 L 412.22 582.68 L 412.09 582.94 L 411.56 583.34 L 411.43 583.47 L 411.30 583.74 L 411.30 584.66 L 411.17 585.45 L 411.04 585.85 L 410.90 586.11 L 410.64 586.38 L 410.51 586.38 L 410.38 586.51 L 410.24 586.77 L 410.11 587.56 L 410.11 588.49 L 409.98 589.28 L 409.72 589.94 L 409.58 590.20 L 409.32 590.47 L 409.19 590.73 L 409.06 591.66 L 409.06 593.77 L 408.92 595.09 L 408.66 595.88 L 408.66 596.67 L 408.26 597.46 L 408.13 597.99 L 408.00 600.10 L 408.00 610.66 L 408.13 613.43 L 408.26 613.83 L 408.66 614.23 L 408.92 614.89 L 409.06 615.28 L 409.19 616.07 L 409.19 618.58 L 409.32 618.98 L 409.72 619.37 L 409.85 619.64 L 409.98 619.90 L 410.11 620.30 L 410.11 621.09 L 410.24 621.22 L 410.24 622.01 L 410.38 622.28 L 410.77 622.54 L 410.90 622.80 L 411.04 623.07 L 411.17 623.46 L 411.17 624.12 L 411.30 624.78 L 411.56 625.31 L 412.09 625.71 L 412.22 626.10 L 412.36 626.63 L 412.49 627.69 L 412.88 627.82 L 413.15 628.08 L 413.28 628.35 L 413.41 628.74 L 413.54 629.80 L 414.34 630.46 L 414.47 630.86 L 414.60 631.78 L 415.26 632.31 L 415.39 632.57 L 415.52 632.84 L 415.79 633.63 L 416.18 633.76 L 416.45 634.02 L 416.45 634.68 L 416.58 634.95 L 416.84 635.21 L 416.98 635.21 L 417.37 635.61 L 417.64 636.00 L 417.77 636.66 L 418.16 636.80 L 418.56 637.19 L 418.69 637.46 L 418.69 638.12 L 419.22 638.38 L 419.48 638.64 L 419.75 639.30 L 420.41 639.83 L 420.80 640.23 L 420.93 640.49 L 420.93 640.76 L 421.20 641.02 L 421.73 641.42 L 421.86 641.68 L 421.99 642.21 L 422.25 642.21 L 422.78 642.74 L 422.91 643.26 L 423.31 643.26 L 423.57 643.40 L 423.71 643.53 L 423.84 643.79 L 423.84 644.05 L 424.10 644.32 L 424.50 644.32 L 424.89 644.71 L 425.03 645.24 L 425.29 645.37 L 425.55 645.37 L 425.95 645.77 L 425.95 646.03 L 426.08 646.30 L 426.35 646.43 L 426.74 646.43 L 427.01 646.69 L 427.14 647.09 L 427.14 647.35 L 427.53 647.35 L 427.80 647.49 L 428.19 647.88 L 428.19 648.15 L 428.46 648.41 L 428.72 648.41 L 429.25 648.94 L 429.38 649.33 L 430.04 649.60 L 430.31 649.86 L 430.70 650.39 L 431.10 650.52 L 431.49 650.79 L 432.42 651.71 L 432.81 651.71 L 433.08 651.84 L 433.34 652.11 L 433.47 652.50 L 434.13 652.63 L 434.40 652.77 L 434.66 652.90 L 435.06 653.43 L 435.32 653.69 L 435.72 653.82 L 436.25 653.82 L 437.04 654.61 L 437.30 654.75 L 437.57 654.88 L 437.83 654.88 L 438.09 655.01 L 438.49 655.41 L 438.49 655.54 L 438.75 655.80 L 439.41 655.80 L 439.81 655.93 L 440.07 656.07 L 440.47 656.46 L 440.47 656.59 L 440.73 656.86 L 441.66 656.99 L 442.19 657.25 L 442.45 657.39 L 442.58 657.65 L 442.85 657.91 L 443.37 657.91 L 443.77 658.05 L 444.03 658.18 L 444.30 658.31 L 444.96 658.97 L 445.75 658.97 L 446.28 659.10 L 446.67 659.23 L 447.07 659.76 L 447.20 659.89 L 447.46 660.03 L 448.26 660.16 L 448.92 660.16 L 449.31 660.29 L 449.58 660.42 L 449.84 660.55 L 449.97 660.82 L 450.24 661.08 L 451.29 661.21 L 452.08 661.21 L 452.35 661.35 L 452.88 662.01 L 453.14 662.14 L 454.46 662.27 L 455.78 662.27 L 456.18 662.40 L 456.57 662.80 L 456.70 663.19 L 457.76 663.33 L 459.34 663.33 L 459.61 663.46 L 459.87 663.59 L 460.40 664.12 L 460.66 664.25 L 461.72 664.38 L 462.12 664.38 L 462.25 664.25 L 462.64 664.25 L 463.44 664.38 L 463.83 664.51 L 464.76 665.17 L 465.02 665.31 L 467.92 665.31 L 468.98 665.44 L 469.51 665.57 L 469.77 665.70 L 470.03 665.83 L 470.43 666.23 L 471.35 666.36 L 474.52 666.36 L 477.16 666.49 L 477.69 666.63 L 478.22 666.76 L 479.14 667.15 L 480.07 667.29 L 481.25 667.29 L 482.71 667.15 L 485.74 667.29 L 491.55 667.15 L 492.34 666.89 L 493.92 666.89 L 494.72 666.76 L 495.38 666.49 L 497.88 666.36 L 502.37 666.36 L 502.50 666.23 L 502.77 666.23 L 503.16 665.70 L 503.43 665.57 L 503.82 665.44 L 506.73 665.44 L 508.31 665.31 L 508.58 665.17 L 509.10 664.65 L 509.37 664.51 L 509.76 664.38 L 511.74 664.25 L 513.59 664.25 L 513.99 664.12 L 514.25 663.99 L 514.65 663.59 L 514.91 663.46 L 515.57 663.33 L 516.76 663.19 L 518.21 663.19 L 518.74 662.93 L 519.00 662.53 L 519.27 662.40 L 519.66 662.27 L 522.17 662.14 L 522.57 662.01 L 523.23 661.35 L 523.62 661.21 L 524.41 661.08 L 526.26 661.08 L 526.53 660.95 L 527.19 660.42 L 527.45 660.29 L 527.85 660.16 L 528.37 660.03 L 529.43 660.03 L 529.69 659.89 L 529.96 659.50 L 530.35 659.23 L 530.62 659.10 L 532.07 658.97 L 532.20 658.84 L 532.47 658.84 L 532.86 658.31 L 533.13 658.18 L 533.65 658.05 L 534.58 658.05 L 534.97 657.91 L 535.24 657.78 L 535.50 657.52 L 535.50 657.39 L 535.63 657.25 L 535.90 657.12 L 536.16 656.99 L 536.95 656.86 L 537.88 656.73 L 538.01 656.33 L 538.14 656.20 L 538.41 656.07 L 538.80 655.93 L 539.46 655.80 L 539.99 655.80 L 540.25 655.54 L 540.25 655.41 L 540.52 655.14 L 540.78 655.01 L 541.04 654.88 L 541.57 654.75 L 542.23 654.75 L 543.02 653.95 L 543.29 653.82 L 543.95 653.82 L 544.48 653.69 L 544.74 653.56 L 545.40 652.77 L 546.19 652.77 L 546.59 652.63 L 546.85 652.50 L 547.12 651.97 L 547.25 651.84 L 547.51 651.71 L 548.17 651.71 L 548.70 651.45 L 549.36 650.65 L 549.62 650.52 L 550.42 650.39 L 550.55 649.99 L 550.81 649.73 L 551.47 649.60 L 551.74 649.47 L 552.00 649.33 L 552.79 648.54 L 553.72 648.28 L 553.72 648.01 L 554.11 647.62 L 554.38 647.49 L 554.64 647.49 L 554.90 647.35 L 555.30 647.09 L 555.83 646.43 L 556.09 646.30 L 556.75 646.30 L 556.88 645.90 L 557.28 645.51 L 557.54 645.37 L 558.20 645.24 L 558.73 644.98 L 558.86 644.58 L 559.00 644.45 L 559.26 644.32 L 559.79 644.32 L 560.05 644.19 L 560.84 643.26 L 561.37 643.00 L 562.16 642.21 L 562.43 642.08 L 562.96 641.94 L 563.09 641.55 L 563.48 641.15 L 563.75 641.15 L 564.01 641.02 L 564.14 640.62 L 564.27 640.36 L 564.41 640.23 L 564.67 640.10 L 565.20 639.96 L 565.33 639.57 L 565.73 639.17 L 566.39 638.91 L 566.52 638.51 L 566.78 638.25 L 567.31 637.98 L 568.76 636.66 L 569.16 636.27 L 569.16 636.14 L 569.55 635.74 L 569.95 635.61 L 570.21 635.34 L 570.74 634.68 L 571.14 634.55 L 571.27 634.16 L 572.19 633.36 L 572.46 632.84 L 573.65 631.65 L 573.78 631.25 L 574.17 630.86 L 574.70 630.59 L 574.83 629.93 L 575.10 629.67 L 575.36 629.67 L 575.63 629.54 L 575.76 629.01 L 575.89 628.74 L 576.15 628.48 L 576.55 628.48 L 576.81 628.22 L 576.81 627.82 L 577.21 627.42 L 577.47 627.42 L 577.74 627.29 L 577.74 626.90 L 577.87 626.63 L 578.53 626.10 L 578.66 625.97 L 578.79 625.58 L 579.06 625.18 L 579.59 624.78 L 579.72 624.65 L 579.72 624.52 L 579.98 624.26 L 579.98 623.99 L 580.11 623.73 L 580.51 623.33 L 580.77 623.33 L 581.04 623.07 L 581.04 622.41 L 581.83 621.62 L 582.23 620.82 L 582.23 620.56 L 582.36 620.30 L 582.75 620.16 L 583.02 620.03 L 583.02 619.77 L 583.15 619.64 L 583.15 619.24 L 583.28 618.98 L 583.81 618.58 L 583.94 618.45 L 584.07 618.19 L 584.21 617.92 L 584.21 617.39 L 584.34 617.13 L 584.60 616.87 L 585.00 616.73 L 585.00 616.47 L 585.13 616.34 L 585.13 615.94 L 585.26 615.55 L 585.39 615.28 L 585.79 614.89 L 586.19 614.75 L 586.19 613.96 L 586.58 613.17 L 586.85 612.91 L 587.24 612.77 L 587.24 611.98 L 587.37 611.59 L 587.64 611.19 L 587.90 610.93 L 588.03 610.93 L 588.30 610.66 L 588.30 609.74 L 588.56 608.95 L 588.82 608.68 L 589.22 608.55 L 589.35 607.49 L 589.48 606.70 L 589.62 606.44 L 590.14 606.04 L 590.28 605.91 L 590.41 605.65 L 590.41 604.59 L 590.54 603.93 L 590.67 603.53 L 591.07 603.14 L 591.33 603.14 L 591.46 602.87 L 591.46 601.29 L 591.60 600.76 L 591.73 600.37 L 592.12 599.97 L 592.39 599.97 L 592.52 599.71 L 592.65 598.52 L 592.65 596.41 L 592.78 596.01 L 593.05 595.75 L 593.44 595.62 L 593.71 593.90 L 593.71 592.32 L 593.84 591.79 L 593.97 591.52 L 594.50 590.86 L 594.63 590.47 L 594.76 588.62 L 594.76 586.51 L 594.90 584.40 L 595.03 583.47 L 595.16 583.21 L 595.56 582.81 L 595.69 582.42 L 595.82 578.98 L 595.82 570.01 L 595.69 567.37 L 595.56 566.97 L 595.42 566.71 L 595.16 566.45 L 595.03 566.18 L 594.90 565.52 L 594.76 563.94 L 594.76 559.98 L 594.63 558.53 L 594.50 558.00 L 594.10 557.60 L 593.97 557.34 L 593.84 556.81 L 593.71 555.62 L 593.71 551.79 L 593.58 550.21 L 593.44 549.42 L 593.05 549.02 L 592.92 548.76 L 592.78 548.36 L 592.65 547.44 L 592.65 544.93 L 592.52 542.56 L 592.39 542.03 L 592.12 541.76 L 591.99 541.24 L 591.86 540.84 L 591.73 540.18 L 591.73 538.86 L 591.46 537.54 L 591.46 535.69 L 590.80 534.50 L 590.67 534.11 L 590.54 533.45 L 590.54 531.34 L 590.41 529.75 L 590.28 529.62 L 590.28 529.36 L 589.88 528.96 L 589.75 528.70 L 589.62 528.04 L 589.48 526.72 L 589.48 525.40 L 589.35 525.13 Z M 720.55 500.71 L 718.17 500.85 L 717.25 500.98 L 716.99 501.11 L 716.33 501.77 L 716.06 501.90 L 715.40 501.90 L 715.01 502.03 L 714.74 502.17 L 714.61 502.30 L 714.21 502.83 L 713.95 502.96 L 713.42 502.96 L 713.16 503.09 L 712.89 503.35 L 712.89 503.49 L 712.50 503.88 L 712.10 504.01 L 709.99 506.13 L 709.86 506.65 L 709.59 506.92 L 709.20 507.05 L 709.07 507.58 L 708.93 507.97 L 708.80 508.24 L 708.67 508.37 L 708.27 508.50 L 708.01 508.77 L 707.88 509.29 L 707.88 509.95 L 707.75 510.22 L 707.35 510.61 L 707.22 510.61 L 706.96 510.88 L 706.82 512.20 L 706.82 515.89 L 706.96 517.21 L 707.09 517.48 L 707.22 517.61 L 707.75 518.01 L 707.88 518.27 L 708.01 518.93 L 708.14 519.72 L 708.41 519.72 L 708.80 520.12 L 708.93 520.38 L 708.93 520.78 L 709.59 521.31 L 709.86 521.57 L 710.25 522.23 L 710.78 522.76 L 710.91 522.76 L 711.31 523.15 L 711.31 523.29 L 711.71 523.68 L 712.37 524.08 L 712.76 524.47 L 712.76 524.60 L 713.03 524.87 L 713.29 525.00 L 713.55 525.00 L 713.82 525.13 L 714.21 525.53 L 714.21 525.66 L 714.48 525.92 L 715.53 526.06 L 715.93 526.19 L 716.59 526.85 L 716.85 526.98 L 718.31 526.98 L 719.76 527.24 L 724.11 527.24 L 725.43 527.11 L 726.89 526.98 L 727.28 526.85 L 727.55 526.72 L 727.94 526.32 L 728.21 526.19 L 728.60 526.06 L 729.13 525.92 L 729.79 525.79 L 729.92 525.40 L 730.19 525.13 L 730.45 525.00 L 730.98 525.00 L 731.24 524.87 L 731.51 524.74 L 731.90 524.34 L 731.90 524.21 L 732.16 523.95 L 732.82 523.68 L 733.09 523.02 L 734.01 522.10 L 734.28 521.44 L 734.41 521.17 L 734.54 521.04 L 734.94 520.91 L 735.20 520.65 L 735.20 520.12 L 735.86 519.59 L 736.12 519.33 L 736.26 518.80 L 736.26 518.14 L 736.39 517.74 L 736.52 517.35 L 736.65 517.08 L 737.05 516.69 L 737.18 516.42 L 737.31 515.37 L 737.31 512.33 L 737.18 511.54 L 736.92 511.27 L 736.78 511.27 L 736.52 511.01 L 736.39 510.75 L 736.26 510.35 L 736.12 509.82 L 736.12 509.16 L 735.73 509.03 L 735.46 508.77 L 735.07 507.84 L 734.94 507.58 L 734.80 507.45 L 734.41 507.31 L 734.14 507.05 L 734.01 506.79 L 733.88 506.26 L 733.35 506.13 L 733.09 505.86 L 732.96 505.20 L 732.69 505.07 L 732.43 505.07 L 732.03 504.67 L 731.90 504.28 L 731.64 504.15 L 731.24 504.15 L 730.85 503.88 L 730.45 503.35 L 730.32 503.22 L 730.05 503.09 L 729.79 502.96 L 729.13 502.96 L 728.60 502.30 L 728.47 502.17 L 728.21 502.03 L 727.81 501.90 L 727.15 501.90 L 726.75 501.77 L 726.49 501.64 L 725.83 500.98 L 724.77 500.98 L 723.85 500.71 Z M 684.65 500.71 L 683.20 500.85 L 682.41 500.98 L 682.14 501.11 L 681.88 501.24 L 681.48 501.64 L 681.22 501.77 L 680.82 501.90 L 679.77 502.03 L 679.50 502.30 L 679.50 502.43 L 679.11 502.83 L 678.84 502.96 L 678.45 502.96 L 678.05 503.35 L 678.05 503.49 L 677.65 503.88 L 677.26 504.01 L 676.86 504.28 L 675.54 505.47 L 675.28 505.99 L 674.09 507.18 L 673.96 507.84 L 673.69 508.11 L 673.30 508.24 L 673.17 509.03 L 673.03 509.69 L 672.90 510.09 L 672.64 510.35 L 672.24 510.48 L 671.98 511.93 L 671.98 516.69 L 672.11 517.61 L 672.37 517.87 L 672.51 517.87 L 672.90 518.27 L 673.03 518.67 L 673.17 519.19 L 673.17 519.85 L 673.56 520.25 L 673.69 520.25 L 673.96 520.51 L 674.22 521.17 L 674.35 521.44 L 674.49 521.57 L 674.88 521.70 L 675.15 521.97 L 675.28 522.49 L 675.54 522.76 L 675.94 522.89 L 676.20 523.15 L 676.33 523.55 L 676.60 523.81 L 677.13 523.95 L 677.92 524.74 L 678.31 525.00 L 678.58 525.00 L 678.84 525.13 L 679.24 525.53 L 679.24 525.66 L 679.50 525.92 L 680.16 525.92 L 680.69 526.06 L 681.09 526.19 L 681.75 526.85 L 682.14 526.98 L 683.46 526.98 L 684.52 527.24 L 685.70 527.38 L 687.55 527.38 L 688.61 527.11 L 690.59 527.11 L 691.78 526.98 L 692.04 526.72 L 692.04 526.58 L 692.30 526.32 L 692.57 526.19 L 692.96 526.06 L 693.89 526.06 L 694.55 525.92 L 694.94 525.53 L 694.94 525.40 L 695.34 525.00 L 695.87 525.00 L 696.13 524.87 L 696.26 524.47 L 696.66 524.08 L 696.92 524.08 L 697.19 523.95 L 698.11 523.02 L 698.24 522.89 L 698.38 522.63 L 698.38 522.36 L 698.77 521.97 L 699.17 521.83 L 699.30 521.57 L 699.30 521.04 L 699.70 520.65 L 699.83 520.65 L 700.09 520.38 L 700.22 520.12 L 700.36 519.72 L 700.36 519.33 L 700.49 519.06 L 701.15 518.53 L 701.28 518.27 L 701.41 517.61 L 701.41 516.82 L 701.81 515.63 L 701.81 513.12 L 701.68 512.46 L 701.41 511.80 L 701.28 511.14 L 701.28 510.35 L 701.02 510.09 L 700.88 510.09 L 700.62 509.82 L 700.49 509.56 L 700.36 509.29 L 700.22 508.90 L 700.09 508.24 L 699.83 508.24 L 699.43 507.84 L 699.30 507.58 L 699.30 507.31 L 698.90 506.92 L 698.77 506.92 L 698.51 506.65 L 698.24 506.13 L 697.98 505.86 L 697.85 505.86 L 697.45 505.47 L 697.45 505.33 L 696.79 504.81 L 696.53 504.54 L 696.53 504.41 L 696.13 504.01 L 695.60 503.88 L 695.21 503.49 L 695.08 503.09 L 694.55 503.09 L 694.15 502.96 L 693.89 502.83 L 693.49 502.30 L 693.36 502.17 L 693.10 502.03 L 692.70 501.90 L 692.04 501.90 L 691.64 501.77 L 691.38 501.64 L 690.72 500.98 L 689.53 500.85 L 688.48 500.71 Z M 531.41 493.06 L 530.62 493.19 L 529.83 493.46 L 528.24 493.46 L 527.05 493.59 L 526.79 493.72 L 526.13 494.38 L 525.87 494.51 L 525.21 494.51 L 524.68 494.78 L 524.41 495.04 L 524.41 495.17 L 524.15 495.44 L 523.89 495.57 L 523.49 495.57 L 522.96 495.83 L 522.43 496.49 L 522.04 496.62 L 520.85 497.94 L 520.19 498.47 L 519.93 498.74 L 519.93 499.13 L 519.79 499.40 L 519.40 499.79 L 519.00 499.92 L 519.00 500.58 L 518.87 500.85 L 518.08 501.51 L 517.95 501.64 L 517.81 501.90 L 517.81 502.43 L 517.68 502.83 L 517.55 503.09 L 517.02 503.62 L 516.89 503.88 L 516.76 505.60 L 516.76 507.71 L 516.89 509.56 L 517.02 509.82 L 517.15 509.95 L 517.29 509.95 L 517.55 510.22 L 517.68 510.48 L 517.81 510.75 L 517.81 511.27 L 517.95 511.80 L 518.08 512.07 L 518.34 512.33 L 518.47 512.33 L 518.74 512.59 L 518.87 512.99 L 518.87 513.39 L 519.00 513.78 L 519.13 514.05 L 519.93 514.71 L 520.06 514.97 L 520.06 515.37 L 520.32 515.50 L 520.59 515.50 L 520.98 515.89 L 521.11 516.42 L 521.38 516.42 L 521.77 516.55 L 522.17 516.95 L 522.30 517.35 L 522.83 517.48 L 523.09 517.61 L 524.02 518.53 L 524.28 518.67 L 524.94 518.67 L 525.34 518.80 L 525.60 518.93 L 526.00 519.46 L 526.66 519.72 L 527.58 519.72 L 528.24 519.85 L 528.90 519.99 L 529.30 520.12 L 529.56 520.38 L 529.83 520.51 L 530.22 520.65 L 534.45 520.65 L 534.71 520.51 L 535.24 519.99 L 535.50 519.85 L 535.77 519.72 L 536.82 519.59 L 538.01 519.59 L 538.27 519.46 L 538.80 518.80 L 539.07 518.67 L 539.73 518.67 L 539.99 518.53 L 540.25 518.27 L 540.25 518.14 L 540.52 517.87 L 540.91 517.61 L 541.18 517.48 L 541.44 517.48 L 541.70 517.35 L 541.84 517.21 L 541.97 516.82 L 542.10 516.69 L 542.36 516.55 L 542.63 516.55 L 542.89 516.42 L 543.02 516.16 L 543.02 515.89 L 543.42 515.50 L 543.68 515.50 L 543.95 515.37 L 544.08 514.57 L 545.00 513.65 L 545.14 513.39 L 545.27 512.73 L 545.66 512.33 L 545.80 512.33 L 546.06 512.07 L 546.06 511.41 L 546.19 510.61 L 546.32 510.22 L 546.46 509.95 L 546.98 509.43 L 547.12 509.16 L 547.12 504.41 L 546.98 504.15 L 546.32 503.62 L 546.19 503.22 L 546.06 502.69 L 545.93 501.77 L 545.27 501.24 L 545.14 500.98 L 545.00 500.32 L 544.87 500.05 L 544.74 499.92 L 544.34 499.79 L 544.08 499.53 L 543.82 498.74 L 543.55 498.74 L 543.02 498.21 L 542.89 497.68 L 542.50 497.55 L 542.10 497.15 L 541.97 496.76 L 541.44 496.62 L 541.18 496.49 L 540.78 496.10 L 540.78 495.96 L 540.52 495.70 L 539.99 495.57 L 539.46 495.57 L 539.07 495.44 L 538.80 495.17 L 538.67 494.78 L 538.41 494.64 L 537.22 494.51 L 536.82 494.38 L 536.16 493.72 L 535.90 493.59 L 534.71 493.59 L 533.79 493.46 L 532.07 493.06 Z M 1125.76 460.59 L 1124.96 460.72 L 1124.30 460.85 L 1124.17 460.99 L 1123.91 460.99 L 1123.64 461.38 L 1123.38 461.51 L 1122.85 461.65 L 1122.19 461.78 L 1121.00 461.78 L 1119.82 461.91 L 1119.29 462.17 L 1118.36 462.70 L 1117.70 462.83 L 1116.65 462.83 L 1115.86 462.97 L 1115.59 463.10 L 1115.20 463.49 L 1114.80 463.63 L 1114.14 463.76 L 1112.95 463.89 L 1112.16 464.02 L 1111.90 464.15 L 1111.11 464.81 L 1110.71 464.95 L 1109.52 465.08 L 1109.26 465.21 L 1109.13 465.34 L 1108.73 465.87 L 1108.47 466.00 L 1107.54 466.13 L 1107.28 466.27 L 1107.15 466.40 L 1106.62 467.06 L 1106.09 467.06 L 1105.69 467.45 L 1105.69 467.59 L 1105.30 467.98 L 1104.90 468.11 L 1104.77 468.25 L 1103.98 469.04 L 1103.85 469.43 L 1103.71 469.70 L 1103.32 470.09 L 1102.92 470.23 L 1102.79 470.49 L 1102.79 471.02 L 1102.53 471.41 L 1101.87 472.07 L 1101.87 473.00 L 1101.73 473.79 L 1101.60 474.19 L 1101.47 474.45 L 1101.21 474.71 L 1101.07 474.71 L 1100.94 474.85 L 1100.81 475.11 L 1100.94 483.29 L 1100.94 486.06 L 1100.81 593.37 L 1100.68 594.16 L 1100.41 594.96 L 1100.41 595.75 L 1100.15 596.41 L 1099.75 596.93 L 1099.62 597.99 L 1099.62 599.18 L 1099.49 599.84 L 1098.83 600.50 L 1098.70 600.76 L 1098.70 601.69 L 1098.57 602.08 L 1098.17 602.48 L 1098.04 602.48 L 1097.64 602.87 L 1097.51 603.27 L 1097.51 603.93 L 1097.11 604.33 L 1096.59 604.46 L 1096.59 605.12 L 1096.19 605.51 L 1095.79 605.65 L 1095.66 605.78 L 1095.53 606.17 L 1095.13 606.57 L 1094.61 606.70 L 1094.47 606.97 L 1094.34 607.36 L 1094.21 607.49 L 1093.95 607.63 L 1093.15 607.63 L 1092.63 608.02 L 1092.49 608.15 L 1092.36 608.42 L 1092.23 609.08 L 1092.23 609.74 L 1092.49 610.27 L 1093.02 610.40 L 1093.42 610.79 L 1093.42 611.45 L 1093.81 611.85 L 1094.21 611.98 L 1095.40 611.98 L 1095.93 611.72 L 1096.72 611.32 L 1097.11 610.93 L 1097.51 610.66 L 1097.77 610.53 L 1098.43 610.53 L 1099.09 610.40 L 1099.36 610.27 L 1099.49 610.13 L 1099.89 609.61 L 1100.15 609.47 L 1100.68 609.34 L 1101.60 609.21 L 1101.73 608.81 L 1102.00 608.55 L 1102.26 608.42 L 1103.19 608.29 L 1103.45 608.15 L 1103.58 608.02 L 1104.11 607.36 L 1104.77 607.36 L 1105.03 607.23 L 1105.43 606.83 L 1105.43 606.70 L 1105.83 606.31 L 1106.09 606.17 L 1107.01 606.17 L 1107.15 605.78 L 1107.54 605.38 L 1107.81 605.25 L 1108.47 605.12 L 1108.73 604.99 L 1108.86 604.59 L 1109.26 604.19 L 1109.65 604.19 L 1110.05 604.06 L 1110.31 603.80 L 1110.71 603.27 L 1111.63 602.87 L 1111.90 602.61 L 1111.90 602.48 L 1112.29 602.08 L 1112.56 601.95 L 1113.09 601.95 L 1113.22 601.69 L 1113.22 601.42 L 1113.61 601.03 L 1114.01 601.03 L 1114.27 600.89 L 1114.27 600.50 L 1114.80 599.97 L 1115.33 599.84 L 1115.33 599.44 L 1115.46 599.18 L 1115.59 599.05 L 1115.86 598.91 L 1116.12 598.91 L 1116.38 598.65 L 1116.38 598.25 L 1116.78 597.86 L 1117.04 597.86 L 1117.31 597.73 L 1117.31 597.33 L 1117.44 597.07 L 1117.84 596.67 L 1118.23 596.54 L 1118.36 596.27 L 1118.36 596.01 L 1119.42 594.96 L 1119.55 594.56 L 1120.34 593.90 L 1120.48 593.77 L 1120.61 593.50 L 1120.61 592.98 L 1121.27 592.45 L 1121.40 592.32 L 1121.53 592.05 L 1121.66 591.39 L 1121.80 591.00 L 1122.19 590.60 L 1122.59 590.47 L 1122.59 589.81 L 1122.72 589.28 L 1122.85 588.88 L 1122.98 588.62 L 1123.12 588.49 L 1123.51 588.36 L 1123.64 587.56 L 1123.78 587.17 L 1123.91 586.77 L 1124.04 586.51 L 1124.30 586.24 L 1124.44 586.24 L 1124.70 585.98 L 1124.83 585.19 L 1124.83 583.87 L 1124.96 583.34 L 1125.23 583.08 L 1125.23 582.94 L 1125.36 582.81 L 1125.49 582.81 L 1125.76 582.55 L 1125.89 582.15 L 1125.89 580.57 L 1126.02 579.64 L 1126.15 579.25 L 1126.28 578.98 L 1126.42 578.85 L 1126.55 578.85 L 1126.68 578.72 L 1126.81 578.46 L 1126.81 576.08 L 1126.94 574.36 L 1127.08 573.44 L 1127.21 572.78 L 1127.74 572.25 L 1127.87 571.99 L 1128.00 521.83 L 1128.00 515.63 L 1128.00 502.83 L 1128.00 500.71 L 1128.00 474.85 L 1128.00 461.51 L 1127.87 461.12 L 1127.74 460.85 L 1127.47 460.72 L 1126.94 460.59 Z M 1069.40 459.93 L 1069.13 460.06 L 1068.60 460.46 L 1068.34 460.59 L 1067.95 460.72 L 1067.15 460.72 L 1066.49 460.85 L 1065.97 460.99 L 1065.44 461.51 L 1065.04 461.65 L 1064.51 461.78 L 1062.67 461.91 L 1062.01 462.04 L 1061.74 462.17 L 1061.35 462.57 L 1061.08 462.70 L 1060.69 462.83 L 1060.29 462.97 L 1059.23 462.97 L 1058.57 463.10 L 1057.91 463.63 L 1057.52 463.76 L 1057.12 463.89 L 1056.33 464.02 L 1055.27 464.02 L 1055.01 464.15 L 1054.75 464.29 L 1054.35 464.68 L 1054.09 464.81 L 1053.82 464.95 L 1053.16 464.95 L 1052.90 465.08 L 1052.63 465.21 L 1052.50 465.34 L 1052.24 465.74 L 1051.84 466.00 L 1051.31 466.00 L 1051.05 466.13 L 1050.79 466.40 L 1050.79 466.53 L 1050.52 466.79 L 1050.13 467.06 L 1049.73 467.19 L 1049.47 467.32 L 1049.33 467.45 L 1049.33 467.59 L 1049.07 467.98 L 1048.81 468.25 L 1048.01 468.91 L 1048.01 469.04 L 1047.22 469.70 L 1046.96 469.96 L 1046.83 470.23 L 1046.69 470.89 L 1046.17 471.28 L 1046.03 471.41 L 1045.90 471.68 L 1045.77 472.87 L 1045.51 473.66 L 1045.37 474.05 L 1044.98 474.45 L 1044.85 474.85 L 1044.71 476.03 L 1044.71 478.41 L 1044.71 515.10 L 1044.85 530.68 L 1044.85 540.58 L 1044.71 587.04 L 1044.58 587.70 L 1044.45 588.09 L 1043.92 588.49 L 1043.79 590.20 L 1043.66 591.79 L 1043.53 592.32 L 1043.13 592.71 L 1042.74 592.84 L 1042.74 593.50 L 1042.47 594.03 L 1042.34 594.30 L 1042.21 594.43 L 1041.81 594.56 L 1041.55 594.82 L 1041.55 595.35 L 1041.02 595.88 L 1040.62 596.01 L 1040.49 596.67 L 1040.23 596.93 L 1039.96 597.07 L 1039.57 597.07 L 1039.44 597.33 L 1039.44 597.59 L 1039.04 597.99 L 1038.51 597.99 L 1038.25 598.25 L 1038.25 598.52 L 1037.85 598.91 L 1037.19 599.18 L 1036.53 599.31 L 1036.27 599.84 L 1036.14 599.97 L 1035.87 600.10 L 1035.34 600.10 L 1035.08 600.23 L 1034.29 601.03 L 1034.02 601.16 L 1033.63 601.29 L 1032.18 601.29 L 1031.52 601.95 L 1031.25 602.08 L 1030.86 602.21 L 1029.93 602.35 L 1028.88 602.35 L 1028.48 602.48 L 1027.69 602.87 L 1027.03 603.01 L 1026.37 603.14 L 1025.58 603.27 L 1024.52 603.40 L 1017.92 603.40 L 1015.28 603.27 L 1014.23 603.14 L 1013.96 603.01 L 1013.43 602.48 L 1013.17 602.35 L 1011.98 602.35 L 1010.93 602.21 L 1010.53 602.08 L 1010.27 601.95 L 1009.87 601.42 L 1008.95 601.29 L 1008.42 601.16 L 1008.02 601.03 L 1007.63 600.63 L 1007.63 600.50 L 1007.36 600.23 L 1006.83 600.23 L 1006.44 600.10 L 1006.04 599.97 L 1005.65 599.57 L 1005.51 599.31 L 1005.25 599.18 L 1005.12 599.05 L 1004.72 599.05 L 1004.46 598.78 L 1004.19 598.12 L 1003.80 598.12 L 1003.27 597.59 L 1003.27 597.33 L 1003.01 597.07 L 1002.74 597.07 L 1002.21 596.54 L 1002.08 595.88 L 1001.82 595.88 L 1001.42 595.48 L 1001.29 595.22 L 1001.29 594.82 L 1001.03 594.30 L 1000.76 594.03 L 1000.63 594.03 L 1000.23 593.64 L 1000.23 592.84 L 1000.10 592.32 L 999.97 592.05 L 999.31 591.52 L 999.18 591.26 L 999.05 590.47 L 999.05 589.28 L 998.91 589.02 L 998.78 588.75 L 998.39 588.36 L 998.25 587.83 L 998.12 586.77 L 997.99 585.06 L 997.99 584.66 L 998.12 533.18 L 997.99 532.66 L 997.73 532.39 L 996.67 532.39 L 995.88 532.66 L 994.82 532.66 L 994.56 532.79 L 994.16 533.18 L 993.77 533.45 L 993.11 533.58 L 991.79 533.58 L 990.60 533.71 L 990.20 533.84 L 989.68 534.37 L 989.28 534.50 L 988.62 534.64 L 987.04 534.64 L 985.85 534.77 L 985.45 534.90 L 984.92 535.30 L 984.66 535.43 L 984.26 535.56 L 983.47 535.69 L 982.42 535.69 L 981.36 535.82 L 980.96 535.96 L 980.44 536.48 L 980.17 536.62 L 979.91 536.75 L 979.12 536.88 L 978.06 536.88 L 977.80 537.01 L 977.14 537.80 L 976.87 537.94 L 976.61 537.94 L 976.34 538.07 L 976.21 538.20 L 976.08 538.60 L 975.82 538.86 L 975.02 539.12 L 974.89 539.65 L 974.76 539.78 L 974.50 539.92 L 973.97 540.05 L 973.84 540.31 L 973.84 540.58 L 973.57 540.84 L 972.91 541.10 L 972.91 541.63 L 972.12 542.42 L 971.99 542.69 L 971.86 543.08 L 971.86 543.48 L 971.73 543.88 L 971.33 544.27 L 971.20 544.27 L 970.93 544.54 L 970.80 545.20 L 970.80 545.99 L 971.07 551.27 L 970.93 580.70 L 970.93 581.36 L 971.07 582.68 L 970.93 587.17 L 970.80 587.70 L 970.67 588.09 L 970.01 589.54 L 969.88 590.34 L 969.88 591.13 L 969.75 591.66 L 969.61 592.32 L 969.22 592.71 L 969.09 592.71 L 968.82 592.98 L 968.82 593.50 L 968.69 593.90 L 968.56 594.30 L 968.16 594.69 L 967.90 594.69 L 967.63 594.96 L 967.63 595.62 L 967.37 595.88 L 966.97 596.01 L 966.71 596.01 L 966.71 596.27 L 966.58 596.67 L 966.31 596.93 L 965.92 597.07 L 965.52 597.07 L 965.52 597.46 L 965.39 597.73 L 965.26 597.86 L 964.99 597.99 L 964.47 597.99 L 964.33 598.25 L 964.33 598.52 L 963.94 598.91 L 963.41 599.05 L 963.15 599.18 L 962.22 600.10 L 961.83 600.23 L 961.03 600.37 L 960.64 600.89 L 960.37 601.03 L 959.98 601.16 L 959.19 601.16 L 958.13 601.42 L 958.00 601.82 L 957.87 601.95 L 957.60 602.08 L 957.21 602.21 L 954.83 602.21 L 952.85 602.48 L 952.85 602.74 L 952.45 603.14 L 951.79 603.27 L 943.35 603.27 L 942.69 603.14 L 942.42 603.01 L 942.03 602.48 L 941.76 602.35 L 940.05 602.21 L 939.65 602.35 L 938.46 602.21 L 938.20 602.08 L 937.54 601.42 L 937.28 601.29 L 936.75 601.16 L 936.09 601.16 L 935.82 601.03 L 935.03 600.23 L 934.64 600.10 L 934.11 600.10 L 933.84 599.97 L 933.58 599.71 L 933.58 599.57 L 933.32 599.31 L 933.05 599.31 L 932.66 599.05 L 932.00 598.39 L 931.47 597.73 L 931.47 597.07 L 931.07 597.07 L 930.81 596.93 L 930.54 596.67 L 930.41 595.88 L 930.02 595.88 L 929.62 595.48 L 929.49 594.82 L 929.36 594.56 L 929.22 594.43 L 929.09 594.43 L 928.83 594.16 L 928.56 593.77 L 928.43 593.50 L 928.43 592.71 L 928.30 592.18 L 928.04 591.66 L 927.90 591.66 L 927.64 591.39 L 927.51 591.00 L 927.38 590.47 L 927.38 589.28 L 927.24 587.96 L 926.98 587.43 L 926.72 587.30 L 926.58 587.04 L 926.45 586.77 L 926.32 586.24 L 926.32 533.98 L 926.06 533.45 L 925.79 533.32 L 925.13 533.32 L 924.47 533.58 L 923.55 533.71 L 922.36 533.71 L 922.10 533.84 L 921.83 534.24 L 921.57 534.37 L 921.17 534.50 L 920.65 534.64 L 919.46 534.64 L 918.14 534.77 L 917.87 534.90 L 917.48 535.30 L 917.21 535.43 L 916.82 535.56 L 916.29 535.69 L 914.97 535.69 L 913.52 535.82 L 913.12 535.96 L 912.86 536.09 L 912.46 536.48 L 912.07 536.62 L 911.54 536.75 L 910.48 536.88 L 909.29 536.88 L 909.03 537.01 L 908.50 537.54 L 908.24 537.67 L 907.97 537.80 L 907.31 537.94 L 906.65 537.94 L 906.39 538.20 L 906.39 538.33 L 905.99 538.73 L 905.33 538.86 L 905.07 538.99 L 904.81 539.12 L 904.67 539.26 L 904.15 539.92 L 903.75 540.05 L 903.22 540.18 L 903.09 540.71 L 902.96 540.84 L 902.69 540.97 L 902.17 541.10 L 902.17 541.50 L 902.03 541.76 L 901.90 541.90 L 901.24 542.16 L 901.24 542.56 L 901.11 542.95 L 900.45 543.48 L 900.19 543.74 L 900.05 544.40 L 900.05 545.20 L 899.92 545.59 L 899.40 546.25 L 899.26 546.52 L 899.26 548.23 L 899.53 552.98 L 899.40 558.66 L 899.40 562.22 L 899.66 565.92 L 899.66 573.84 L 899.40 576.34 L 899.40 580.04 L 899.66 582.28 L 899.66 585.06 L 899.40 586.11 L 899.40 587.17 L 899.13 587.56 L 899.13 588.49 L 899.00 589.41 L 898.87 589.94 L 898.74 590.20 L 898.47 590.47 L 898.34 590.47 L 898.08 590.73 L 898.08 591.52 L 897.94 592.32 L 897.42 592.84 L 897.15 592.84 L 897.02 593.11 L 897.02 593.50 L 896.89 593.77 L 896.76 594.03 L 896.10 594.56 L 895.83 594.82 L 895.70 595.09 L 895.70 595.48 L 895.44 595.75 L 895.17 595.75 L 894.91 595.88 L 894.78 596.54 L 894.38 596.93 L 893.98 596.93 L 893.72 597.07 L 893.72 597.46 L 893.59 597.73 L 893.46 597.86 L 893.19 597.99 L 892.66 598.12 L 892.53 598.52 L 892.14 598.91 L 891.08 599.31 L 890.29 600.10 L 889.50 600.10 L 888.70 600.23 L 888.44 600.37 L 888.31 600.76 L 888.18 600.89 L 887.91 601.03 L 887.52 601.16 L 886.59 601.29 L 885.54 601.29 L 885.27 601.42 L 884.88 601.95 L 884.61 602.08 L 883.95 602.21 L 882.10 602.35 L 880.52 602.35 L 879.20 602.61 L 876.96 602.61 L 876.16 602.35 L 873.53 602.35 L 871.55 602.21 L 871.15 602.08 L 870.89 601.95 L 870.23 601.29 L 868.51 601.16 L 868.11 600.89 L 867.85 600.50 L 867.45 600.23 L 867.19 600.10 L 866.66 600.10 L 866.40 599.97 L 866.13 599.71 L 866.13 599.44 L 865.87 599.18 L 865.47 599.18 L 865.21 599.05 L 864.95 598.78 L 864.81 598.25 L 864.42 598.12 L 864.02 597.73 L 863.89 597.46 L 863.76 596.93 L 863.23 596.80 L 863.10 596.67 L 862.97 596.41 L 862.97 596.01 L 862.83 595.75 L 862.70 595.62 L 861.91 594.96 L 861.78 594.69 L 861.65 593.77 L 861.25 593.64 L 861.12 593.50 L 860.99 593.24 L 860.85 592.98 L 860.72 592.05 L 860.85 591.66 L 860.72 590.47 L 860.59 589.94 L 860.46 589.68 L 860.06 589.28 L 859.93 589.02 L 859.80 588.49 L 859.67 586.90 L 859.80 538.20 L 859.67 537.67 L 859.14 537.14 L 858.48 537.14 L 857.82 537.54 L 857.42 537.67 L 857.03 537.80 L 856.50 537.94 L 854.78 537.94 L 854.39 538.07 L 853.20 538.73 L 852.54 538.86 L 851.75 538.86 L 850.82 538.99 L 850.43 539.12 L 850.03 539.52 L 849.77 539.65 L 849.37 539.78 L 848.98 539.92 L 848.05 539.92 L 847.26 540.05 L 846.73 540.31 L 845.81 540.84 L 845.28 540.97 L 844.62 541.10 L 843.30 541.10 L 843.04 541.24 L 842.64 541.76 L 842.38 541.90 L 842.11 542.03 L 841.58 542.16 L 840.79 542.16 L 840.00 542.95 L 839.74 543.08 L 838.94 543.08 L 838.55 543.22 L 838.15 543.74 L 838.02 543.88 L 837.89 543.88 L 837.62 544.14 L 837.36 544.27 L 836.83 544.40 L 836.70 544.80 L 836.30 545.20 L 836.04 545.20 L 835.78 545.33 L 835.64 545.72 L 835.51 545.99 L 835.25 546.25 L 834.98 546.25 L 834.72 546.38 L 834.59 546.65 L 834.59 547.04 L 834.32 547.70 L 834.19 547.97 L 833.80 548.36 L 833.66 548.89 L 833.14 550.87 L 833.00 551.40 L 833.00 554.17 L 833.27 560.11 L 833.27 575.95 L 833.14 586.24 L 833.00 586.77 L 832.87 587.04 L 832.61 587.30 L 832.48 587.70 L 832.34 589.02 L 832.34 590.73 L 832.21 591.26 L 831.68 591.66 L 831.42 592.58 L 831.42 593.24 L 831.29 593.50 L 830.76 593.90 L 830.63 594.43 L 830.36 594.82 L 830.23 595.22 L 829.57 595.75 L 829.31 596.01 L 829.31 596.41 L 829.18 596.67 L 829.04 596.80 L 828.78 596.93 L 828.52 596.93 L 828.25 597.20 L 828.25 597.59 L 827.86 597.99 L 827.59 597.99 L 827.33 598.12 L 827.20 598.78 L 826.93 599.05 L 826.54 599.05 L 826.41 599.18 L 826.14 599.18 L 826.01 599.71 L 825.75 599.97 L 825.48 600.10 L 825.09 600.10 L 824.82 600.23 L 823.90 601.16 L 822.97 601.16 L 822.18 601.29 L 821.92 601.55 L 821.52 602.08 L 820.86 602.21 L 819.67 602.35 L 816.77 602.35 L 816.51 602.48 L 816.37 602.61 L 816.37 602.74 L 816.24 602.87 L 815.98 603.01 L 815.71 603.14 L 815.19 603.27 L 812.41 603.27 L 810.57 603.14 L 810.30 603.01 L 810.04 602.87 L 809.77 602.61 L 809.51 602.48 L 809.25 602.35 L 807.13 602.35 L 806.47 602.21 L 806.21 602.08 L 805.95 601.82 L 805.81 601.42 L 805.55 601.42 L 805.42 601.29 L 804.49 601.16 L 804.23 601.03 L 803.97 600.76 L 803.84 600.23 L 803.18 600.23 L 802.91 600.10 L 802.78 599.97 L 802.78 599.84 L 802.52 599.57 L 802.52 599.44 L 802.38 599.31 L 801.99 599.18 L 801.59 598.78 L 801.33 597.99 L 801.06 597.99 L 800.80 597.73 L 800.67 597.46 L 800.67 596.93 L 800.54 596.67 L 800.40 596.41 L 799.74 595.75 L 799.61 595.48 L 799.48 594.03 L 799.35 593.77 L 798.82 593.24 L 798.69 592.71 L 798.56 591.66 L 798.56 590.20 L 798.42 589.28 L 798.03 588.75 L 797.90 588.36 L 798.03 587.43 L 797.90 586.64 L 798.03 585.72 L 798.29 585.06 L 798.42 584.40 L 798.56 583.34 L 798.56 582.68 L 798.42 575.42 L 798.56 571.46 L 798.69 567.37 L 798.82 566.58 L 798.95 566.31 L 799.22 566.05 L 799.35 565.79 L 799.48 565.26 L 799.61 562.75 L 799.74 558.92 L 799.74 557.47 L 799.48 545.33 L 799.22 545.20 L 797.63 545.20 L 796.58 545.33 L 796.31 545.46 L 795.78 545.86 L 795.26 546.12 L 794.86 546.25 L 793.41 546.25 L 792.22 546.38 L 791.96 546.52 L 791.43 547.04 L 791.16 547.18 L 790.77 547.31 L 789.84 547.44 L 787.86 547.44 L 787.20 548.10 L 786.94 548.23 L 786.68 548.36 L 785.75 548.49 L 784.04 548.49 L 783.77 548.76 L 783.77 548.89 L 783.38 549.29 L 782.98 549.42 L 782.32 549.55 L 781.26 549.68 L 781.26 549.81 L 781.00 550.08 L 781.00 550.21 L 780.87 550.34 L 780.60 550.47 L 780.34 550.61 L 779.55 550.61 L 779.29 550.87 L 779.29 551.00 L 778.89 551.40 L 778.49 551.66 L 777.83 551.93 L 777.70 552.32 L 777.31 552.72 L 776.78 552.85 L 776.65 553.11 L 776.51 553.51 L 776.25 553.77 L 775.85 553.91 L 775.59 554.17 L 775.59 554.43 L 775.19 555.09 L 774.93 555.36 L 774.80 555.36 L 774.53 555.62 L 774.53 556.28 L 774.27 557.34 L 774.14 557.60 L 774.01 557.73 L 773.61 557.87 L 773.35 558.53 L 773.21 559.45 L 773.08 561.03 L 773.08 563.67 L 773.21 567.11 L 773.08 568.03 L 772.95 568.29 L 772.55 568.82 L 772.42 569.35 L 772.42 575.68 L 772.29 576.61 L 771.89 577.80 L 771.89 578.59 L 771.50 579.25 L 771.37 579.78 L 771.37 580.96 L 771.23 582.15 L 771.10 582.55 L 770.44 583.08 L 770.18 583.60 L 770.18 584.26 L 770.05 584.92 L 769.52 585.32 L 769.39 585.85 L 769.25 586.24 L 769.12 586.64 L 768.99 586.90 L 768.59 587.30 L 768.20 587.43 L 768.20 587.96 L 768.07 588.36 L 767.80 588.62 L 767.41 588.75 L 767.27 589.15 L 767.01 589.68 L 766.88 590.07 L 766.61 590.34 L 766.22 590.47 L 766.09 590.60 L 765.95 590.86 L 765.95 591.39 L 765.69 591.66 L 765.03 591.92 L 765.03 592.32 L 764.90 592.58 L 764.77 592.71 L 764.50 592.84 L 764.24 592.84 L 763.97 593.11 L 763.97 593.37 L 763.58 593.77 L 763.31 593.90 L 762.79 593.90 L 762.65 594.43 L 762.39 594.69 L 761.73 594.82 L 761.33 595.09 L 760.81 595.75 L 760.41 596.01 L 759.62 596.01 L 759.49 596.54 L 759.22 596.80 L 758.56 596.93 L 758.03 597.20 L 757.77 597.46 L 757.77 597.59 L 757.64 597.73 L 757.51 597.73 L 757.24 597.99 L 756.32 598.25 L 755.79 598.91 L 755.40 599.05 L 754.87 599.18 L 754.21 599.31 L 753.81 599.84 L 753.42 599.97 L 753.02 600.10 L 752.23 600.23 L 751.04 600.23 L 750.64 600.37 L 749.85 601.03 L 749.46 601.16 L 748.80 601.29 L 747.87 601.29 L 747.48 601.42 L 747.08 601.82 L 746.82 601.95 L 746.55 602.08 L 744.97 602.08 L 743.52 602.21 L 742.46 602.35 L 741.54 602.48 L 740.74 602.74 L 739.82 602.87 L 737.58 602.87 L 736.78 602.74 L 736.26 602.48 L 735.33 602.35 L 732.16 602.35 L 730.98 602.21 L 730.58 602.08 L 730.32 601.95 L 730.05 601.69 L 730.05 601.55 L 729.39 601.29 L 728.07 601.16 L 727.41 600.89 L 727.02 600.37 L 726.23 600.23 L 725.83 600.10 L 725.57 599.97 L 725.30 599.71 L 725.17 599.71 L 725.04 599.57 L 725.04 599.44 L 724.77 599.18 L 724.51 599.05 L 724.11 599.05 L 723.85 598.91 L 723.59 598.65 L 723.45 598.25 L 723.19 598.12 L 722.93 598.12 L 722.66 597.99 L 722.40 597.73 L 722.40 597.59 L 722.00 597.20 L 721.21 596.41 L 720.81 596.01 L 720.68 596.01 L 720.42 595.75 L 720.29 595.48 L 720.15 594.96 L 719.76 594.82 L 719.36 594.43 L 719.36 593.77 L 718.57 592.98 L 718.44 592.71 L 718.31 592.45 L 718.31 591.66 L 718.17 591.26 L 718.04 591.00 L 717.51 590.47 L 717.38 590.20 L 717.25 589.54 L 717.12 588.22 L 716.99 587.56 L 716.85 587.30 L 716.59 587.04 L 716.46 586.64 L 716.33 586.24 L 716.19 585.58 L 716.06 575.29 L 716.19 562.35 L 716.19 558.53 L 716.19 544.40 L 716.19 542.16 L 716.06 541.24 L 715.93 540.97 L 715.80 540.84 L 715.53 540.71 L 714.61 540.71 L 713.82 540.84 L 713.29 540.97 L 712.89 541.10 L 712.63 541.24 L 712.37 541.37 L 711.84 541.90 L 711.18 542.03 L 709.99 542.03 L 708.93 542.16 L 708.67 542.29 L 708.27 542.69 L 707.48 543.08 L 706.16 543.22 L 704.71 543.22 L 704.45 543.35 L 704.18 543.48 L 703.92 543.74 L 703.66 543.88 L 703.39 544.01 L 702.34 544.14 L 701.15 544.27 L 699.83 544.27 L 699.56 544.40 L 699.04 545.06 L 698.51 545.20 L 697.58 545.20 L 696.92 545.33 L 696.66 545.59 L 696.66 545.72 L 696.26 546.12 L 696.00 546.25 L 695.47 546.25 L 695.08 546.38 L 694.81 546.65 L 694.42 547.18 L 693.76 547.44 L 693.49 547.57 L 693.36 547.70 L 693.23 548.10 L 692.83 548.49 L 692.57 548.49 L 692.30 548.63 L 692.17 548.89 L 692.17 549.15 L 691.78 549.55 L 691.38 549.68 L 691.25 549.81 L 691.12 550.08 L 691.12 550.34 L 690.98 550.61 L 690.32 551.13 L 690.06 551.40 L 690.06 552.32 L 689.93 553.25 L 689.80 553.64 L 689.66 554.04 L 689.27 554.70 L 689.27 556.28 L 689.53 560.11 L 689.53 581.36 L 689.40 585.85 L 689.14 586.38 L 689.00 587.17 L 688.87 588.49 L 688.87 588.75 L 689.00 588.88 L 689.00 589.15 L 688.87 590.47 L 688.74 590.73 L 688.34 591.13 L 688.21 591.13 L 687.95 591.39 L 687.95 592.45 L 687.82 593.24 L 687.68 593.50 L 687.42 593.77 L 687.02 593.90 L 687.02 594.43 L 686.89 594.69 L 686.76 594.96 L 685.97 595.62 L 685.84 595.75 L 685.70 596.01 L 685.70 596.41 L 685.18 596.93 L 684.65 597.07 L 684.65 597.46 L 684.52 597.73 L 684.38 597.86 L 684.12 597.99 L 683.73 597.99 L 683.46 598.25 L 683.33 598.65 L 683.07 598.91 L 682.41 599.18 L 681.61 599.44 L 681.09 600.10 L 680.43 600.10 L 680.16 600.23 L 679.37 601.03 L 679.11 601.16 L 678.31 601.16 L 677.26 601.29 L 676.99 601.55 L 676.99 601.69 L 676.73 601.95 L 676.47 602.08 L 676.20 602.21 L 675.41 602.35 L 673.17 602.35 L 672.64 602.48 L 672.37 602.61 L 671.71 603.14 L 671.32 603.27 L 670.66 603.40 L 669.73 603.40 L 662.61 603.40 L 661.42 603.27 L 661.02 603.14 L 660.76 603.01 L 660.23 602.48 L 659.97 602.35 L 657.46 602.35 L 656.93 602.21 L 656.54 602.08 L 656.27 601.95 L 656.14 601.82 L 656.01 601.42 L 655.74 601.29 L 654.42 601.16 L 654.16 601.03 L 653.76 600.50 L 653.24 600.23 L 652.58 600.10 L 652.31 599.97 L 651.92 599.57 L 651.78 599.18 L 650.99 599.05 L 650.73 598.78 L 650.46 598.12 L 649.94 597.99 L 649.67 597.73 L 649.54 597.46 L 649.54 597.07 L 649.14 597.07 L 648.88 596.93 L 648.62 596.67 L 648.62 596.27 L 648.48 596.14 L 648.48 595.88 L 648.22 595.75 L 647.96 595.75 L 647.69 595.48 L 647.56 595.22 L 647.56 594.82 L 647.43 594.56 L 647.16 594.16 L 646.50 593.64 L 646.50 592.84 L 646.37 592.05 L 646.24 591.79 L 645.84 591.66 L 645.58 591.39 L 645.45 591.00 L 645.32 590.34 L 645.32 589.15 L 645.18 588.62 L 644.79 588.22 L 644.66 587.96 L 644.52 587.30 L 644.39 586.51 L 644.26 585.58 L 644.26 461.91 L 644.13 461.25 L 644.00 460.99 L 643.73 460.72 L 643.47 460.59 L 642.94 460.46 L 642.41 460.46 L 642.28 460.59 L 640.70 460.72 L 640.17 460.85 L 639.64 461.12 L 639.11 461.51 L 638.72 461.65 L 638.06 461.78 L 637.00 461.78 L 635.95 461.91 L 635.42 462.04 L 635.15 462.17 L 634.63 462.57 L 634.23 462.70 L 633.83 462.83 L 632.78 462.97 L 631.72 462.97 L 631.19 463.10 L 630.27 463.63 L 629.87 463.76 L 629.48 463.89 L 628.82 463.89 L 628.42 464.02 L 628.16 464.15 L 627.50 464.81 L 627.10 464.95 L 626.44 464.95 L 625.65 465.21 L 625.52 465.61 L 625.25 465.87 L 624.99 466.00 L 624.46 466.00 L 624.07 466.13 L 623.80 466.27 L 623.67 466.40 L 623.14 467.06 L 622.35 467.19 L 622.22 467.45 L 622.22 467.72 L 621.95 467.98 L 621.69 467.98 L 621.43 468.11 L 621.29 468.25 L 621.16 468.64 L 620.77 469.04 L 620.37 469.17 L 620.24 469.70 L 620.11 469.96 L 619.84 470.23 L 619.45 470.36 L 619.31 471.02 L 619.05 471.68 L 618.92 471.94 L 618.79 472.07 L 618.39 472.21 L 618.26 472.34 L 618.13 472.60 L 617.99 473.53 L 617.99 474.45 L 617.86 474.71 L 617.33 475.11 L 617.07 475.64 L 617.07 479.46 L 617.33 522.63 L 617.33 533.32 L 617.20 582.02 L 617.33 584.00 L 617.73 584.66 L 617.86 585.19 L 617.99 585.72 L 618.13 586.90 L 618.13 589.15 L 618.26 589.94 L 618.39 590.20 L 618.65 590.47 L 618.79 590.47 L 618.92 590.60 L 619.05 590.86 L 619.18 591.52 L 619.18 592.58 L 619.45 593.64 L 620.11 594.16 L 620.24 594.56 L 620.37 594.96 L 620.37 595.62 L 620.63 595.88 L 620.77 595.88 L 621.16 596.27 L 621.29 596.67 L 621.43 597.59 L 621.69 597.86 L 621.95 597.86 L 622.22 598.12 L 622.35 598.39 L 622.35 598.91 L 622.48 599.18 L 623.41 600.10 L 623.67 601.03 L 623.93 601.03 L 624.33 601.42 L 624.59 602.08 L 624.99 602.21 L 625.39 602.61 L 625.52 603.01 L 625.78 603.27 L 626.05 603.27 L 626.44 603.67 L 626.44 603.93 L 626.71 604.19 L 627.10 604.33 L 627.50 604.72 L 627.63 605.12 L 627.76 605.25 L 628.16 605.38 L 628.55 605.78 L 628.69 606.17 L 629.08 606.31 L 629.35 606.44 L 629.61 606.70 L 629.74 606.97 L 629.87 607.36 L 630.27 607.49 L 630.67 607.89 L 630.80 608.29 L 631.46 608.42 L 631.85 608.81 L 631.99 609.21 L 632.25 609.34 L 632.65 609.34 L 632.91 609.47 L 633.17 609.61 L 633.57 610.00 L 633.57 610.13 L 633.83 610.40 L 634.10 610.53 L 634.76 610.53 L 635.29 611.19 L 635.42 611.32 L 635.68 611.45 L 636.08 611.59 L 636.87 611.59 L 637.13 611.72 L 637.92 612.51 L 638.45 612.64 L 639.11 612.64 L 639.38 612.77 L 639.64 612.91 L 640.04 613.43 L 640.30 613.57 L 641.22 613.57 L 642.02 613.70 L 642.28 613.83 L 642.54 613.96 L 642.94 614.49 L 643.20 614.62 L 643.60 614.75 L 645.05 614.75 L 645.71 614.89 L 646.11 615.02 L 646.37 615.15 L 646.50 615.28 L 646.50 615.41 L 646.77 615.68 L 647.30 615.81 L 648.48 615.81 L 649.54 615.94 L 650.60 616.07 L 652.31 616.60 L 653.24 616.73 L 655.22 616.87 L 664.72 617.00 L 666.83 616.87 L 667.62 616.73 L 668.55 616.47 L 669.21 616.07 L 669.73 615.94 L 671.05 615.81 L 672.90 615.81 L 673.56 615.68 L 673.83 615.55 L 674.35 615.02 L 674.88 614.89 L 675.41 614.75 L 676.33 614.62 L 677.52 614.62 L 678.18 613.96 L 678.45 613.83 L 678.84 613.70 L 679.63 613.70 L 680.43 613.57 L 680.69 613.43 L 681.48 612.77 L 681.75 612.64 L 682.80 612.51 L 683.33 612.25 L 683.73 611.72 L 683.99 611.59 L 685.31 611.45 L 685.57 611.32 L 685.70 610.93 L 685.97 610.66 L 686.36 610.53 L 687.16 610.27 L 687.55 610.27 L 687.68 609.87 L 687.95 609.61 L 688.21 609.47 L 688.61 609.47 L 688.87 609.34 L 689.27 608.95 L 689.27 608.81 L 689.53 608.55 L 689.93 608.29 L 690.32 608.15 L 690.46 608.02 L 691.12 607.23 L 691.51 607.10 L 691.64 606.97 L 691.64 606.83 L 691.91 606.57 L 691.91 606.44 L 692.04 606.31 L 692.30 606.17 L 692.83 606.04 L 692.96 605.65 L 693.36 605.25 L 693.76 605.25 L 694.02 604.99 L 694.02 604.72 L 694.15 604.46 L 694.28 604.33 L 694.55 604.19 L 695.08 604.06 L 695.08 603.67 L 695.60 603.14 L 695.87 603.14 L 695.87 602.61 L 696.00 602.21 L 696.26 601.95 L 696.79 601.95 L 697.32 602.48 L 697.32 603.14 L 697.58 603.53 L 700.62 606.31 L 701.41 607.23 L 701.68 607.36 L 702.07 607.36 L 702.34 607.49 L 702.47 607.63 L 702.60 608.02 L 702.73 608.15 L 703.00 608.29 L 703.39 608.29 L 703.66 608.42 L 703.92 608.55 L 704.05 608.68 L 704.32 609.21 L 704.58 609.34 L 704.84 609.47 L 705.50 609.47 L 705.90 609.87 L 705.90 610.00 L 706.16 610.27 L 706.43 610.40 L 706.82 610.53 L 707.22 610.53 L 707.48 610.66 L 707.88 611.19 L 708.41 611.32 L 708.80 611.45 L 709.20 611.59 L 709.46 611.72 L 709.73 611.85 L 709.86 611.98 L 709.99 612.38 L 710.25 612.51 L 710.91 612.51 L 711.57 612.64 L 711.97 612.77 L 712.37 613.30 L 712.50 613.43 L 712.76 613.57 L 713.69 613.57 L 714.21 613.70 L 714.61 613.83 L 714.87 613.96 L 715.14 614.23 L 715.14 614.36 L 715.40 614.62 L 716.59 614.62 L 717.78 614.75 L 718.31 614.89 L 718.83 615.15 L 719.10 615.41 L 719.10 615.55 L 719.76 615.81 L 721.74 615.81 L 723.59 615.94 L 724.91 616.07 L 725.43 616.21 L 725.70 616.47 L 725.96 616.60 L 726.62 616.73 L 729.26 616.87 L 737.58 616.73 L 738.10 616.87 L 738.37 616.87 L 740.74 616.73 L 741.27 616.21 L 741.54 616.07 L 741.80 615.94 L 742.99 615.81 L 746.02 615.81 L 747.08 615.68 L 747.34 615.41 L 747.48 615.15 L 747.74 615.02 L 748.00 614.89 L 748.40 614.75 L 749.46 614.75 L 750.78 614.62 L 751.04 614.49 L 751.17 614.36 L 751.17 614.23 L 751.44 613.96 L 751.70 613.83 L 752.10 613.70 L 753.15 613.70 L 754.08 613.57 L 754.34 613.43 L 754.47 613.30 L 754.47 613.17 L 754.60 613.04 L 754.87 612.91 L 755.53 612.64 L 756.19 612.64 L 756.85 612.51 L 757.37 612.25 L 757.77 611.72 L 758.03 611.59 L 758.56 611.45 L 759.22 611.45 L 759.49 611.32 L 759.62 610.93 L 759.75 610.79 L 760.01 610.66 L 760.28 610.53 L 760.67 610.40 L 761.07 610.40 L 761.20 610.27 L 761.47 610.27 L 761.60 609.87 L 761.86 609.61 L 762.13 609.47 L 762.65 609.47 L 762.92 609.34 L 763.18 609.21 L 763.31 609.08 L 763.84 608.42 L 764.11 608.29 L 764.77 608.15 L 764.77 607.89 L 765.29 607.36 L 765.69 607.36 L 765.95 607.23 L 766.75 606.31 L 767.41 605.91 L 768.07 605.12 L 768.59 604.85 L 769.25 604.06 L 769.65 603.93 L 769.91 603.67 L 770.05 603.27 L 770.18 603.14 L 770.44 603.01 L 770.97 602.87 L 771.10 602.61 L 771.10 602.35 L 771.37 602.08 L 771.76 601.95 L 771.89 601.55 L 772.03 601.29 L 772.16 601.03 L 772.42 600.63 L 772.69 600.37 L 772.95 600.23 L 773.21 600.50 L 773.35 601.16 L 773.35 601.95 L 773.48 602.48 L 773.61 602.74 L 774.40 603.40 L 774.40 603.80 L 774.53 603.93 L 774.53 604.19 L 774.93 604.33 L 775.33 604.72 L 775.46 604.99 L 775.46 605.25 L 776.65 606.44 L 776.91 606.97 L 777.83 607.89 L 778.10 608.15 L 779.02 609.08 L 779.68 609.47 L 780.74 610.53 L 781.13 610.66 L 781.66 611.32 L 781.79 611.45 L 782.06 611.59 L 782.45 611.59 L 782.72 611.72 L 782.98 611.98 L 782.98 612.11 L 783.24 612.38 L 783.51 612.51 L 783.90 612.64 L 784.30 612.64 L 784.70 612.77 L 784.96 613.04 L 785.09 613.43 L 785.36 613.43 L 785.49 613.57 L 786.02 613.70 L 786.68 613.70 L 786.94 613.83 L 787.20 613.96 L 787.73 614.49 L 788.00 614.62 L 788.79 614.75 L 789.71 614.75 L 790.11 614.89 L 790.37 615.02 L 790.64 615.15 L 791.16 615.68 L 792.48 615.81 L 794.07 615.81 L 794.99 615.94 L 795.92 616.21 L 796.31 616.34 L 796.58 616.60 L 797.10 616.73 L 798.95 616.87 L 804.76 616.73 L 805.15 616.73 L 806.47 616.87 L 809.51 616.73 L 809.91 616.60 L 810.30 616.21 L 810.57 616.07 L 810.83 615.94 L 811.62 615.81 L 814.92 615.81 L 815.45 615.68 L 815.71 615.55 L 815.85 615.41 L 815.85 615.28 L 815.98 615.15 L 816.24 615.02 L 816.51 614.89 L 816.90 614.75 L 818.09 614.62 L 819.15 614.62 L 819.41 614.36 L 819.41 614.23 L 819.81 613.83 L 820.20 613.70 L 822.18 613.57 L 822.45 613.43 L 823.11 612.77 L 823.50 612.64 L 824.56 612.51 L 824.69 612.38 L 824.95 612.38 L 825.09 611.98 L 825.22 611.85 L 825.48 611.72 L 825.75 611.59 L 826.14 611.45 L 826.67 611.45 L 826.93 611.32 L 827.07 611.19 L 827.46 610.66 L 827.73 610.53 L 828.12 610.53 L 828.38 610.40 L 828.65 610.27 L 829.44 609.47 L 829.97 609.47 L 830.36 609.34 L 830.63 609.08 L 831.02 608.55 L 831.95 608.15 L 832.21 607.89 L 832.21 607.76 L 832.61 607.36 L 832.87 607.23 L 833.40 607.10 L 833.53 606.57 L 833.66 606.44 L 833.93 606.31 L 834.46 606.17 L 834.59 605.78 L 834.98 605.38 L 835.25 605.25 L 835.64 605.12 L 836.44 604.19 L 837.23 603.67 L 837.76 603.01 L 837.89 602.61 L 838.28 602.21 L 838.81 602.35 L 838.94 602.74 L 838.81 603.14 L 838.94 603.53 L 839.21 603.80 L 839.87 604.33 L 840.00 604.59 L 840.00 605.12 L 840.26 605.25 L 840.53 605.25 L 840.92 605.65 L 841.06 606.31 L 841.58 606.44 L 841.85 606.70 L 842.11 607.36 L 842.64 607.49 L 842.90 607.76 L 843.04 608.29 L 843.30 608.42 L 843.70 608.42 L 844.09 608.81 L 844.09 609.08 L 844.22 609.34 L 844.62 609.34 L 844.88 609.47 L 845.28 610.00 L 845.54 610.27 L 846.07 610.40 L 846.47 610.66 L 846.86 611.06 L 846.86 611.19 L 847.13 611.45 L 847.39 611.59 L 847.92 611.59 L 848.18 611.72 L 848.32 611.85 L 848.58 612.38 L 848.84 612.51 L 849.37 612.64 L 850.03 612.64 L 850.30 612.77 L 850.43 612.91 L 850.69 613.43 L 851.09 613.57 L 851.48 613.70 L 851.88 613.70 L 852.27 613.83 L 852.54 613.96 L 853.07 614.49 L 853.33 614.62 L 854.25 614.75 L 855.18 614.75 L 855.57 614.89 L 855.97 615.02 L 856.23 615.15 L 856.76 615.68 L 857.82 615.81 L 860.59 615.81 L 861.51 615.94 L 861.91 616.07 L 862.17 616.21 L 862.44 616.47 L 862.83 616.60 L 863.49 616.73 L 866.27 616.87 L 868.64 616.87 L 874.58 616.73 L 875.64 616.60 L 876.69 615.94 L 877.22 615.81 L 878.94 615.68 L 880.78 615.68 L 881.71 615.55 L 881.97 615.41 L 882.24 615.15 L 882.50 615.02 L 882.90 614.89 L 883.29 614.75 L 883.95 614.75 L 884.88 614.49 L 885.14 614.36 L 885.54 613.96 L 886.06 613.83 L 886.59 613.70 L 887.25 613.70 L 887.38 613.57 L 888.04 613.57 L 888.31 613.43 L 888.44 613.04 L 888.97 612.77 L 889.50 612.64 L 890.42 612.64 L 890.95 612.51 L 891.34 612.11 L 891.34 611.98 L 891.61 611.72 L 891.87 611.59 L 892.53 611.59 L 892.80 611.45 L 893.06 611.32 L 893.85 610.53 L 894.51 610.53 L 894.78 610.40 L 895.04 610.13 L 895.04 610.00 L 895.44 609.61 L 895.70 609.47 L 895.96 609.34 L 896.76 609.21 L 896.76 608.95 L 897.15 608.55 L 897.42 608.42 L 897.68 608.42 L 897.94 608.29 L 898.34 607.89 L 898.34 607.76 L 898.60 607.49 L 899.13 607.23 L 899.66 606.57 L 900.05 606.17 L 900.45 606.04 L 900.71 605.78 L 901.51 604.99 L 901.77 604.72 L 902.56 603.93 L 902.83 603.67 L 903.62 602.87 L 903.88 602.61 L 904.41 601.55 L 904.94 601.03 L 905.33 600.89 L 905.73 601.29 L 905.99 601.95 L 906.39 602.35 L 906.39 602.87 L 906.52 603.14 L 906.92 603.14 L 907.31 603.53 L 907.45 603.80 L 907.45 604.06 L 907.58 604.33 L 908.37 604.99 L 910.75 607.36 L 911.54 608.29 L 911.93 608.42 L 912.20 608.55 L 912.59 608.95 L 912.73 609.34 L 912.99 609.34 L 913.12 609.47 L 913.52 609.47 L 913.91 609.87 L 913.91 610.00 L 914.18 610.27 L 914.44 610.40 L 914.97 610.53 L 915.23 610.66 L 915.50 610.79 L 915.63 610.93 L 915.76 611.32 L 916.55 611.45 L 916.82 611.59 L 917.08 611.72 L 917.87 612.51 L 918.53 612.51 L 919.59 612.77 L 919.85 612.91 L 919.99 613.04 L 920.12 613.43 L 920.38 613.57 L 921.04 613.57 L 921.70 613.70 L 922.10 613.83 L 922.49 613.96 L 922.76 614.09 L 923.15 614.49 L 923.42 614.62 L 924.47 614.75 L 925.26 614.75 L 925.92 614.89 L 926.32 615.02 L 926.72 615.15 L 927.64 615.68 L 928.70 615.81 L 929.88 615.94 L 931.60 615.94 L 932.39 616.07 L 932.79 616.21 L 933.58 616.60 L 934.11 616.73 L 937.01 616.87 L 945.59 616.73 L 946.25 616.60 L 946.78 616.21 L 947.04 616.07 L 947.44 615.94 L 947.97 615.81 L 951.27 615.81 L 952.45 615.68 L 952.72 615.55 L 953.25 615.15 L 953.51 615.02 L 953.91 614.89 L 954.30 614.75 L 955.75 614.75 L 956.41 614.62 L 956.68 614.49 L 957.07 613.96 L 957.34 613.83 L 957.87 613.70 L 958.53 613.70 L 959.19 613.57 L 959.71 613.43 L 959.98 613.30 L 960.51 612.77 L 960.90 612.64 L 961.30 612.51 L 961.96 612.51 L 962.22 612.38 L 962.35 611.98 L 962.62 611.72 L 963.01 611.59 L 963.41 611.45 L 964.20 611.45 L 964.47 611.19 L 964.47 611.06 L 964.86 610.66 L 965.52 610.40 L 966.05 610.40 L 966.31 610.27 L 966.45 609.87 L 966.71 609.61 L 966.97 609.47 L 967.37 609.47 L 967.63 609.34 L 967.90 609.21 L 968.69 608.42 L 968.95 608.29 L 969.61 608.15 L 969.61 607.89 L 970.01 607.49 L 970.27 607.36 L 970.54 607.36 L 970.80 607.23 L 970.93 607.10 L 971.46 606.44 L 971.86 606.17 L 972.25 606.04 L 972.52 605.78 L 973.04 605.12 L 973.31 605.12 L 973.57 604.99 L 973.70 604.59 L 974.10 604.19 L 974.36 604.06 L 974.76 604.06 L 974.76 603.80 L 974.89 603.40 L 975.16 603.14 L 975.42 603.14 L 975.68 603.01 L 975.82 602.48 L 975.95 602.21 L 976.21 601.95 L 976.61 601.82 L 976.74 601.69 L 976.87 601.42 L 976.87 601.16 L 977.00 600.89 L 977.40 600.50 L 977.80 600.50 L 978.19 600.89 L 978.32 601.29 L 978.32 601.69 L 978.59 601.95 L 978.85 601.95 L 979.25 602.35 L 979.51 603.01 L 980.04 603.14 L 980.30 603.40 L 980.57 604.06 L 980.96 604.06 L 981.23 604.19 L 981.36 604.33 L 981.49 604.59 L 981.49 604.72 L 981.62 604.99 L 982.02 605.12 L 982.28 605.25 L 982.55 605.51 L 982.68 605.91 L 982.81 606.04 L 983.08 606.17 L 983.47 606.31 L 983.74 606.57 L 984.13 607.10 L 984.66 607.36 L 985.19 607.89 L 985.19 608.02 L 985.58 608.42 L 986.24 608.55 L 986.51 608.81 L 986.51 609.08 L 986.64 609.34 L 987.17 609.34 L 987.56 609.47 L 988.22 610.27 L 988.49 610.40 L 988.88 610.53 L 989.41 610.53 L 989.68 610.66 L 989.81 610.79 L 989.81 610.93 L 990.07 611.19 L 990.07 611.32 L 990.73 611.59 L 991.79 611.59 L 992.18 611.85 L 992.45 612.11 L 992.45 612.25 L 992.71 612.51 L 993.77 612.51 L 994.16 612.64 L 994.56 612.77 L 995.09 613.43 L 995.35 613.43 L 995.48 613.57 L 996.27 613.70 L 997.20 613.70 L 997.59 613.83 L 997.86 613.96 L 998.52 614.62 L 999.57 614.75 L 1001.16 614.75 L 1001.95 614.89 L 1003.14 615.55 L 1003.53 615.68 L 1004.33 615.81 L 1006.17 615.94 L 1008.42 615.94 L 1009.08 616.07 L 1009.47 616.21 L 1010.13 616.60 L 1010.66 616.73 L 1014.36 616.87 L 1015.68 616.87 L 1015.81 616.73 L 1017.13 616.73 L 1019.11 616.87 L 1019.37 616.87 L 1024.39 616.73 L 1024.78 616.60 L 1025.31 616.21 L 1025.58 616.07 L 1025.97 615.94 L 1027.69 615.81 L 1030.86 615.81 L 1031.65 615.68 L 1031.91 615.41 L 1031.91 615.28 L 1032.18 615.02 L 1032.44 614.89 L 1033.10 614.75 L 1035.08 614.75 L 1036.27 614.62 L 1036.93 613.96 L 1037.19 613.83 L 1037.46 613.70 L 1038.51 613.57 L 1039.44 613.57 L 1039.70 613.43 L 1039.96 613.04 L 1040.36 612.77 L 1040.76 612.64 L 1041.55 612.51 L 1042.60 612.51 L 1042.87 612.25 L 1042.87 612.11 L 1043.13 611.85 L 1043.40 611.72 L 1043.66 611.59 L 1044.19 611.45 L 1044.85 611.45 L 1045.11 611.32 L 1045.77 610.66 L 1046.03 610.53 L 1046.56 610.53 L 1046.96 610.40 L 1047.22 610.27 L 1047.35 610.13 L 1047.88 609.47 L 1048.28 609.34 L 1048.94 609.34 L 1049.20 609.08 L 1049.73 608.42 L 1049.99 608.29 L 1050.39 608.29 L 1050.92 608.02 L 1050.92 607.76 L 1051.18 607.49 L 1051.45 607.36 L 1051.84 607.36 L 1052.11 607.23 L 1052.37 606.70 L 1052.50 606.57 L 1052.63 606.57 L 1053.43 606.04 L 1053.69 605.78 L 1053.69 605.65 L 1054.09 605.25 L 1054.35 605.12 L 1054.61 604.99 L 1055.01 604.85 L 1055.14 604.46 L 1055.41 604.19 L 1055.80 604.19 L 1055.93 604.06 L 1056.20 604.06 L 1056.33 603.80 L 1056.33 603.53 L 1056.59 603.27 L 1056.86 603.14 L 1057.12 603.14 L 1057.39 602.87 L 1057.39 602.61 L 1057.78 602.21 L 1058.05 602.21 L 1058.31 601.95 L 1058.44 601.55 L 1058.84 601.16 L 1059.23 601.03 L 1059.50 600.37 L 1059.89 599.97 L 1060.42 599.84 L 1060.42 599.44 L 1060.55 599.18 L 1060.82 598.91 L 1061.35 598.78 L 1061.48 598.12 L 1061.87 597.73 L 1062.27 597.59 L 1062.40 597.33 L 1062.40 597.07 L 1062.67 596.67 L 1063.59 595.75 L 1063.59 595.35 L 1063.72 594.96 L 1063.99 594.69 L 1064.25 594.69 L 1064.51 594.43 L 1064.51 594.03 L 1064.78 593.37 L 1065.44 592.84 L 1065.57 592.71 L 1065.70 592.45 L 1065.70 591.92 L 1065.83 591.66 L 1065.97 591.39 L 1066.49 590.86 L 1066.63 590.60 L 1066.76 590.20 L 1066.76 589.68 L 1067.02 589.02 L 1067.68 588.36 L 1067.81 587.04 L 1067.95 586.64 L 1068.08 586.38 L 1068.47 586.11 L 1068.60 585.98 L 1068.74 585.72 L 1068.87 585.19 L 1068.87 584.13 L 1069.00 583.47 L 1069.13 583.21 L 1069.26 582.94 L 1069.53 582.68 L 1069.66 582.42 L 1069.79 582.02 L 1069.79 580.57 L 1069.92 579.51 L 1070.06 578.32 L 1070.19 577.53 L 1070.32 577.00 L 1070.58 576.74 L 1070.72 576.48 L 1070.85 575.95 L 1070.98 574.76 L 1070.98 568.56 L 1071.24 566.71 L 1071.24 558.13 L 1071.24 532.00 L 1071.24 527.90 L 1071.24 480.65 L 1071.24 472.73 L 1071.24 462.70 L 1071.24 460.99 L 1071.11 460.72 L 1070.98 460.46 L 1070.58 460.06 L 1070.32 459.93 Z M 877.35 397.37 L 875.77 397.50 L 874.98 397.90 L 874.58 398.03 L 873.92 398.03 L 873.26 398.29 L 872.60 398.42 L 871.68 398.42 L 870.75 398.56 L 870.49 398.69 L 870.36 398.82 L 870.36 398.95 L 870.23 399.08 L 869.96 399.22 L 869.57 399.35 L 869.17 399.48 L 868.38 399.48 L 867.59 399.61 L 867.32 399.74 L 867.19 400.14 L 867.06 400.27 L 866.79 400.40 L 866.40 400.54 L 865.87 400.67 L 865.08 400.80 L 864.95 401.20 L 864.81 401.33 L 864.55 401.46 L 863.89 401.72 L 863.49 401.72 L 863.23 401.99 L 863.10 402.38 L 862.97 402.52 L 862.70 402.65 L 862.31 402.65 L 862.04 402.78 L 861.78 403.04 L 861.78 403.18 L 861.51 403.44 L 860.46 403.97 L 860.33 404.10 L 859.67 404.89 L 859.40 404.89 L 859.14 405.02 L 858.87 405.68 L 858.74 405.81 L 858.08 406.08 L 857.82 406.74 L 857.69 406.87 L 857.03 407.13 L 856.76 407.79 L 856.63 407.93 L 856.50 407.93 L 856.10 408.19 L 855.84 408.45 L 855.84 408.72 L 855.44 409.11 L 855.05 409.25 L 854.78 409.51 L 854.78 409.77 L 854.12 410.43 L 853.73 410.57 L 853.59 410.83 L 853.46 411.09 L 853.46 411.36 L 853.33 411.62 L 852.93 412.02 L 852.54 412.15 L 852.54 412.41 L 852.54 412.81 L 852.54 413.07 L 852.41 413.34 L 852.27 413.60 L 852.14 413.73 L 851.88 413.87 L 851.62 413.87 L 851.48 414.13 L 851.35 415.19 L 851.09 415.71 L 850.82 415.98 L 850.69 415.98 L 850.43 416.64 L 850.43 417.56 L 850.30 418.09 L 850.16 418.35 L 849.64 418.88 L 849.50 419.28 L 849.37 420.73 L 849.37 422.05 L 849.11 423.11 L 848.98 424.43 L 848.84 426.54 L 848.84 426.80 L 848.98 429.84 L 849.11 430.63 L 849.37 431.42 L 849.37 433.66 L 849.50 434.46 L 849.64 434.85 L 849.77 435.12 L 850.16 435.51 L 850.30 435.78 L 850.43 436.30 L 850.43 436.96 L 850.56 437.62 L 851.22 438.28 L 851.35 438.55 L 851.48 438.81 L 851.48 439.47 L 851.62 439.74 L 852.41 440.53 L 852.54 440.79 L 852.54 441.32 L 852.67 441.58 L 853.07 441.72 L 853.46 442.11 L 853.59 442.38 L 853.73 442.77 L 854.39 443.30 L 854.39 443.43 L 855.18 444.09 L 855.44 444.36 L 855.44 444.49 L 855.84 444.88 L 856.63 445.68 L 857.16 445.81 L 857.42 445.94 L 857.69 446.20 L 857.82 446.73 L 858.08 446.73 L 858.21 446.86 L 858.61 446.86 L 859.01 447.26 L 859.01 447.39 L 859.27 447.66 L 859.53 447.79 L 859.93 447.92 L 860.33 447.92 L 860.59 448.05 L 860.99 448.45 L 861.12 448.84 L 861.91 448.84 L 862.44 448.98 L 862.83 449.11 L 863.10 449.37 L 863.23 449.77 L 863.49 449.90 L 864.29 450.03 L 865.34 450.03 L 865.74 450.16 L 866.27 450.82 L 867.98 451.09 L 869.57 451.09 L 869.96 451.22 L 870.62 451.88 L 870.89 452.01 L 874.98 452.14 L 885.27 452.14 L 885.80 451.88 L 886.06 451.88 L 886.33 452.14 L 886.33 452.41 L 885.93 452.80 L 885.54 452.93 L 885.40 453.07 L 885.27 453.33 L 885.27 453.86 L 885.14 454.12 L 884.88 454.39 L 884.48 454.52 L 884.48 454.91 L 884.22 455.84 L 884.08 456.10 L 883.82 456.37 L 883.29 456.50 L 883.29 457.16 L 883.16 457.42 L 882.90 457.69 L 882.50 457.82 L 882.37 458.21 L 881.58 459.01 L 881.44 459.14 L 880.52 459.93 L 880.26 460.19 L 879.46 460.99 L 879.07 461.38 L 879.07 461.51 L 878.67 461.91 L 878.28 462.04 L 878.14 462.17 L 878.01 462.57 L 877.35 463.10 L 877.09 463.36 L 876.30 464.15 L 876.03 464.42 L 875.51 465.08 L 874.98 465.08 L 874.71 465.34 L 874.71 465.61 L 874.32 466.00 L 873.79 466.00 L 873.53 466.13 L 873.39 466.53 L 873.00 466.93 L 872.73 467.06 L 872.47 467.19 L 871.68 467.45 L 871.68 467.72 L 871.28 468.11 L 870.49 468.11 L 870.23 468.25 L 869.96 468.51 L 869.43 469.17 L 869.17 469.30 L 868.64 469.30 L 868.38 469.43 L 868.38 469.70 L 867.85 470.23 L 867.32 470.23 L 867.06 470.36 L 866.79 470.49 L 866.66 470.62 L 866.00 471.41 L 865.21 471.41 L 864.95 471.68 L 864.95 471.81 L 864.55 472.21 L 864.29 472.34 L 864.02 472.47 L 863.63 472.47 L 863.49 472.60 L 863.23 472.60 L 863.10 473.00 L 862.83 473.26 L 862.57 473.39 L 861.91 473.53 L 861.38 473.53 L 861.25 473.66 L 861.12 473.92 L 860.59 474.45 L 859.80 474.58 L 858.87 474.71 L 858.35 475.37 L 857.95 475.51 L 857.29 475.64 L 855.97 475.64 L 855.71 475.77 L 855.57 475.90 L 855.57 476.03 L 855.44 476.16 L 855.18 476.30 L 854.78 476.43 L 854.39 476.56 L 853.46 476.69 L 852.41 476.69 L 852.01 476.82 L 851.35 477.35 L 850.96 477.48 L 850.16 477.62 L 848.71 477.75 L 847.13 477.75 L 846.73 477.88 L 845.81 478.41 L 845.15 478.54 L 844.36 478.67 L 842.77 478.80 L 839.87 478.80 L 839.47 479.07 L 838.94 479.60 L 838.81 479.86 L 838.68 480.52 L 838.55 481.44 L 838.55 482.24 L 838.81 482.76 L 839.08 482.90 L 840.92 482.90 L 849.24 482.63 L 849.77 482.63 L 850.69 482.76 L 853.73 482.63 L 854.39 482.50 L 855.05 482.10 L 855.71 481.97 L 857.29 481.84 L 858.61 481.84 L 859.80 481.71 L 860.99 481.58 L 861.38 481.44 L 861.65 481.31 L 861.91 481.05 L 862.17 480.92 L 862.83 480.78 L 863.63 480.65 L 864.81 480.65 L 865.74 480.52 L 866.13 480.39 L 866.66 479.86 L 867.06 479.73 L 867.45 479.60 L 868.38 479.46 L 869.17 479.46 L 869.43 479.20 L 869.43 479.07 L 869.83 478.67 L 870.23 478.54 L 870.75 478.41 L 871.68 478.41 L 871.94 478.28 L 872.60 477.62 L 873.00 477.48 L 873.79 477.35 L 874.45 477.35 L 874.71 477.09 L 874.71 476.96 L 875.11 476.56 L 875.51 476.43 L 876.03 476.30 L 876.82 476.30 L 877.09 476.03 L 877.09 475.90 L 877.48 475.51 L 877.75 475.37 L 878.14 475.24 L 879.07 475.11 L 879.60 474.45 L 879.86 474.32 L 880.26 474.19 L 880.92 474.19 L 881.18 473.92 L 881.18 473.79 L 881.58 473.39 L 881.84 473.26 L 882.10 473.13 L 882.50 473.13 L 882.76 473.00 L 882.90 472.87 L 883.03 472.47 L 883.29 472.21 L 883.82 472.21 L 884.08 472.07 L 884.35 471.81 L 884.35 471.68 L 884.74 471.28 L 885.40 471.02 L 885.67 470.89 L 885.80 470.75 L 886.46 469.96 L 886.99 469.96 L 887.25 469.70 L 887.25 469.43 L 887.65 469.04 L 888.18 469.04 L 888.57 468.64 L 888.57 468.51 L 888.97 468.11 L 889.36 467.98 L 889.76 467.72 L 890.02 467.45 L 890.55 466.79 L 892.00 465.61 L 892.27 465.34 L 893.46 464.02 L 893.72 463.49 L 894.38 462.97 L 894.64 462.70 L 894.78 462.17 L 894.91 461.91 L 895.30 461.78 L 895.57 461.65 L 895.57 461.12 L 895.70 460.85 L 896.10 460.46 L 896.23 460.46 L 896.49 460.19 L 896.76 459.53 L 897.81 458.35 L 898.74 457.55 L 898.87 457.29 L 898.87 456.76 L 899.26 456.37 L 899.66 456.23 L 899.79 455.97 L 899.79 455.57 L 900.05 454.78 L 900.32 454.52 L 900.71 454.39 L 900.98 453.46 L 900.98 452.41 L 901.24 452.14 L 901.64 452.01 L 902.17 452.14 L 902.30 452.01 L 902.69 452.01 L 910.09 452.14 L 913.65 452.01 L 913.91 451.88 L 914.18 451.75 L 914.84 451.22 L 915.50 451.09 L 916.82 451.09 L 917.87 450.96 L 918.14 450.82 L 918.67 450.30 L 918.93 450.16 L 919.33 450.03 L 920.12 449.90 L 921.17 449.77 L 921.31 449.37 L 921.57 449.11 L 921.97 448.98 L 922.36 448.84 L 922.89 448.84 L 923.15 448.58 L 923.29 448.18 L 923.42 448.05 L 923.68 447.92 L 924.08 447.92 L 924.60 447.66 L 925.26 446.86 L 925.66 446.60 L 925.92 446.60 L 926.19 446.34 L 926.72 445.68 L 927.24 445.54 L 927.38 445.02 L 927.64 444.75 L 928.30 444.49 L 928.43 443.96 L 928.83 443.56 L 928.96 443.56 L 929.36 443.17 L 929.49 442.77 L 930.15 442.24 L 930.41 441.98 L 930.81 441.06 L 931.34 440.66 L 931.73 441.06 L 931.73 441.58 L 932.00 442.11 L 932.39 442.24 L 932.66 442.51 L 932.92 442.90 L 933.05 443.30 L 933.32 443.56 L 933.45 443.56 L 933.84 443.96 L 934.11 444.62 L 934.64 444.75 L 934.77 444.88 L 934.90 445.15 L 934.90 445.41 L 935.03 445.68 L 935.30 445.81 L 935.56 445.81 L 935.96 446.20 L 935.96 446.47 L 936.09 446.73 L 936.48 446.73 L 936.75 446.86 L 937.14 447.26 L 937.28 447.66 L 937.94 447.79 L 938.33 448.05 L 938.60 448.32 L 938.60 448.45 L 938.99 448.84 L 939.39 448.98 L 940.05 448.98 L 940.44 449.37 L 940.58 449.77 L 941.90 449.90 L 942.29 450.03 L 942.56 450.16 L 943.08 450.82 L 944.40 451.09 L 945.46 451.09 L 945.86 451.22 L 946.12 451.35 L 946.25 451.48 L 946.38 451.88 L 946.65 452.01 L 948.10 452.14 L 950.61 452.14 L 952.06 452.41 L 954.83 452.41 L 957.21 452.27 L 958.92 452.01 L 960.90 452.01 L 961.17 451.88 L 961.83 451.35 L 962.22 451.22 L 962.62 451.09 L 963.41 450.96 L 964.47 450.96 L 964.73 450.82 L 964.86 450.69 L 964.86 450.56 L 965.13 450.30 L 965.39 450.16 L 965.65 450.03 L 966.45 450.03 L 967.11 449.90 L 967.37 449.77 L 967.50 449.37 L 967.77 449.11 L 968.03 448.98 L 968.56 448.98 L 968.95 448.84 L 969.22 448.71 L 969.48 448.45 L 969.48 448.32 L 969.88 447.92 L 970.54 447.92 L 970.80 447.79 L 970.93 447.66 L 971.46 447.00 L 971.86 446.73 L 972.25 446.60 L 972.65 446.07 L 972.91 445.81 L 973.44 445.68 L 973.70 445.41 L 973.84 445.02 L 974.10 444.75 L 974.36 444.62 L 974.76 444.62 L 974.89 444.36 L 974.89 444.09 L 975.29 443.70 L 975.68 443.70 L 975.95 443.43 L 975.95 443.04 L 976.34 442.64 L 976.87 442.51 L 977.00 441.85 L 977.27 441.58 L 977.53 441.58 L 977.80 441.45 L 977.93 440.92 L 978.06 440.66 L 978.32 440.40 L 978.72 440.26 L 978.98 439.60 L 979.25 439.21 L 979.51 438.94 L 979.64 438.94 L 980.04 438.55 L 980.17 438.28 L 980.17 437.76 L 980.30 437.49 L 980.57 437.23 L 980.83 437.23 L 981.10 436.96 L 981.23 436.30 L 981.23 435.64 L 981.89 435.12 L 982.15 434.85 L 982.28 434.19 L 982.28 433.14 L 982.42 432.87 L 983.08 432.34 L 983.21 432.08 L 983.34 431.02 L 983.34 429.84 L 983.47 429.44 L 983.60 429.18 L 984.13 428.65 L 984.26 428.12 L 984.40 426.54 L 984.53 421.39 L 984.53 419.81 L 984.26 418.22 L 984.26 416.24 L 984.13 415.98 L 983.60 415.45 L 983.47 415.19 L 983.34 414.92 L 983.21 414.13 L 983.21 412.81 L 982.94 412.55 L 982.81 412.55 L 982.42 412.15 L 982.28 411.89 L 982.28 411.23 L 982.15 410.83 L 981.89 410.57 L 981.36 410.17 L 981.23 409.91 L 981.10 409.64 L 980.96 408.85 L 980.70 408.85 L 980.30 408.45 L 980.17 408.19 L 980.17 407.93 L 980.04 407.66 L 979.38 407.13 L 979.25 407.00 L 979.25 406.87 L 978.98 406.61 L 978.85 406.08 L 978.46 405.95 L 978.06 405.55 L 977.80 404.89 L 977.27 404.76 L 977.00 404.49 L 976.87 404.23 L 976.87 403.84 L 976.61 403.84 L 976.21 403.70 L 975.95 403.44 L 975.68 402.78 L 975.29 402.78 L 975.02 402.65 L 974.76 402.38 L 974.76 402.25 L 974.36 401.86 L 974.10 401.72 L 973.84 401.59 L 973.18 401.46 L 972.78 401.06 L 972.78 400.80 L 972.52 400.67 L 971.99 400.67 L 971.46 400.54 L 971.07 400.40 L 970.67 400.01 L 970.67 399.88 L 970.41 399.61 L 969.75 399.61 L 968.95 399.48 L 968.69 399.35 L 968.43 399.22 L 967.90 398.69 L 967.63 398.56 L 966.97 398.42 L 965.92 398.42 L 965.39 398.29 L 964.86 398.16 L 964.60 398.03 L 964.33 397.76 L 964.07 397.63 L 963.41 397.50 L 962.09 397.37 L 954.83 397.37 L 953.51 397.50 L 952.85 397.63 L 952.32 398.03 L 951.40 398.29 L 950.87 398.42 L 950.34 398.42 L 949.55 398.56 L 948.89 399.22 L 948.63 399.35 L 948.36 399.48 L 947.57 399.48 L 946.52 399.74 L 946.38 400.14 L 946.25 400.27 L 945.99 400.40 L 945.72 400.54 L 945.20 400.67 L 944.40 400.80 L 944.27 401.20 L 944.01 401.46 L 943.61 401.59 L 942.95 401.72 L 942.69 401.86 L 942.56 401.99 L 942.03 402.65 L 941.10 402.91 L 940.97 403.31 L 940.84 403.44 L 940.58 403.57 L 940.18 403.70 L 938.86 404.89 L 937.54 406.08 L 937.14 406.47 L 936.48 407.13 L 936.22 407.40 L 935.96 407.93 L 935.30 408.45 L 935.16 408.59 L 935.16 408.72 L 934.90 408.98 L 934.90 409.25 L 934.77 409.51 L 934.37 409.91 L 933.98 410.04 L 933.84 410.30 L 933.84 410.83 L 933.18 411.36 L 933.05 411.49 L 932.92 411.75 L 932.79 412.15 L 932.79 412.68 L 932.66 412.94 L 932.00 413.60 L 931.86 414.00 L 931.73 414.53 L 931.60 414.92 L 931.20 415.32 L 931.07 415.32 L 930.81 415.58 L 930.68 416.37 L 930.68 417.17 L 930.54 417.43 L 930.41 417.69 L 929.75 418.35 L 929.62 418.88 L 929.49 419.94 L 929.49 420.99 L 929.36 421.52 L 929.22 421.79 L 928.83 422.31 L 928.70 422.58 L 928.56 427.07 L 928.70 427.59 L 928.56 428.25 L 928.43 428.65 L 928.30 428.91 L 928.17 429.04 L 928.04 429.04 L 927.77 429.31 L 927.64 429.70 L 927.64 431.02 L 927.51 431.82 L 927.38 432.08 L 927.24 432.34 L 926.58 433.00 L 926.58 433.93 L 926.45 434.19 L 925.53 435.12 L 925.26 435.78 L 924.87 436.17 L 924.34 436.44 L 924.08 436.96 L 923.81 437.23 L 922.76 437.89 L 922.63 437.89 L 922.49 438.02 L 922.10 438.55 L 921.70 438.68 L 920.91 438.81 L 920.51 439.34 L 920.25 439.47 L 919.99 439.60 L 919.19 439.60 L 918.80 439.74 L 918.40 439.87 L 917.87 440.40 L 917.61 440.53 L 917.21 440.66 L 915.23 440.79 L 913.39 440.79 L 912.99 440.92 L 912.59 441.32 L 912.33 441.45 L 911.67 441.58 L 905.99 441.72 L 905.33 441.72 L 905.07 441.06 L 905.20 440.26 L 905.33 439.87 L 905.99 439.21 L 906.13 438.81 L 906.13 437.62 L 906.26 436.57 L 906.39 436.04 L 906.52 435.51 L 906.92 434.98 L 907.05 434.59 L 907.05 433.00 L 907.31 431.82 L 907.31 424.43 L 907.18 421.65 L 906.52 420.47 L 906.39 420.07 L 906.26 419.41 L 906.26 418.35 L 906.13 418.22 L 906.13 417.17 L 905.99 416.90 L 905.47 416.51 L 905.33 416.24 L 905.20 415.98 L 905.07 415.19 L 904.94 414.13 L 904.28 413.60 L 904.15 413.21 L 904.01 412.81 L 903.88 411.75 L 903.09 411.09 L 902.96 410.70 L 902.83 410.04 L 902.43 409.91 L 902.17 409.64 L 902.03 409.38 L 902.03 408.98 L 901.90 408.72 L 901.77 408.45 L 901.64 408.32 L 900.98 407.79 L 900.85 407.53 L 900.71 406.87 L 900.45 406.87 L 899.92 406.34 L 899.79 405.81 L 899.40 405.68 L 899.00 405.29 L 898.87 404.89 L 898.47 404.76 L 898.21 404.63 L 897.94 404.36 L 897.81 404.10 L 897.68 403.70 L 897.28 403.57 L 896.89 403.18 L 896.76 402.78 L 896.23 402.65 L 895.96 402.52 L 895.70 402.25 L 895.70 401.99 L 895.44 401.72 L 894.64 401.59 L 894.38 401.46 L 893.85 400.80 L 893.72 400.67 L 893.46 400.54 L 892.93 400.54 L 892.66 400.40 L 892.00 399.74 L 891.74 399.61 L 891.21 399.48 L 890.55 399.48 L 889.76 399.22 L 889.50 398.95 L 889.50 398.82 L 889.36 398.69 L 889.10 398.56 L 888.31 398.42 L 887.38 398.42 L 886.72 398.29 L 886.20 398.16 L 885.54 398.03 L 885.14 397.76 L 884.48 397.63 L 883.95 397.50 L 882.76 397.37 L 881.18 397.37 L 878.28 397.37 Z M 951.13 406.74 L 954.17 406.74 L 954.83 406.87 L 955.23 407.00 L 955.49 407.13 L 956.02 407.53 L 956.94 407.66 L 958.00 407.66 L 958.79 407.79 L 959.05 407.93 L 959.71 408.59 L 959.98 408.72 L 960.24 408.85 L 960.90 408.85 L 961.43 409.51 L 961.69 409.64 L 961.96 409.64 L 962.22 409.77 L 964.47 412.02 L 964.86 412.68 L 965.52 413.34 L 965.65 413.60 L 965.65 414.13 L 966.18 414.26 L 966.31 414.39 L 966.45 414.66 L 966.71 415.71 L 966.84 415.98 L 967.11 416.24 L 967.24 416.24 L 967.50 416.51 L 967.63 416.90 L 967.77 417.43 L 967.77 418.09 L 967.90 418.35 L 968.43 418.75 L 968.56 419.01 L 968.69 419.54 L 968.69 420.07 L 968.82 420.73 L 969.09 421.26 L 969.48 421.79 L 969.61 422.18 L 969.75 423.24 L 969.75 424.95 L 969.88 425.48 L 970.14 425.88 L 970.27 426.27 L 970.41 427.20 L 970.54 427.99 L 970.67 429.70 L 970.67 432.08 L 970.41 432.87 L 970.41 434.19 L 970.01 434.72 L 969.88 435.12 L 969.75 435.78 L 969.75 436.70 L 969.61 437.23 L 969.35 437.89 L 968.82 438.42 L 968.82 439.21 L 968.69 439.60 L 968.56 439.87 L 968.43 440.13 L 967.90 440.53 L 967.63 440.79 L 967.63 441.06 L 967.50 441.32 L 967.24 441.58 L 966.97 441.72 L 966.45 441.85 L 965.92 442.51 L 965.65 442.64 L 965.39 442.77 L 963.54 442.90 L 963.15 443.04 L 962.75 443.17 L 962.09 443.56 L 961.69 443.70 L 961.17 443.83 L 957.34 443.83 L 956.94 443.70 L 956.68 443.56 L 956.15 443.04 L 955.89 442.90 L 954.17 442.90 L 953.64 442.77 L 953.25 442.64 L 952.98 442.51 L 952.85 442.38 L 952.72 441.98 L 952.06 441.85 L 951.53 441.58 L 951.27 441.32 L 951.27 441.19 L 951.00 440.92 L 950.61 440.66 L 950.21 440.53 L 949.81 440.13 L 949.68 439.74 L 949.02 439.47 L 948.63 439.08 L 948.63 438.81 L 948.49 438.55 L 948.23 438.42 L 947.97 438.42 L 947.57 438.02 L 947.44 437.76 L 947.44 437.49 L 947.31 437.23 L 947.04 436.83 L 946.38 436.30 L 946.25 435.91 L 946.12 435.25 L 945.46 434.72 L 945.33 434.46 L 945.20 434.19 L 945.20 433.80 L 945.06 433.66 L 945.06 433.40 L 944.67 433.27 L 944.40 433.00 L 944.27 432.74 L 944.14 432.08 L 944.14 431.02 L 943.88 430.76 L 943.74 430.76 L 943.35 430.36 L 943.22 430.10 L 943.08 429.70 L 943.08 427.99 L 942.95 427.73 L 942.56 427.59 L 942.42 427.46 L 942.42 427.33 L 942.16 427.07 L 942.03 426.67 L 942.03 426.01 L 942.03 423.24 L 941.90 422.71 L 941.50 422.31 L 941.37 422.05 L 941.37 418.75 L 942.03 417.43 L 942.16 416.24 L 942.16 414.66 L 942.42 414.13 L 942.56 414.13 L 942.95 413.87 L 943.08 413.60 L 943.08 412.94 L 943.22 412.81 L 943.22 412.15 L 943.35 411.75 L 944.01 411.23 L 944.14 410.30 L 944.27 410.04 L 944.54 409.77 L 944.67 409.77 L 945.06 409.38 L 945.06 409.25 L 945.59 408.72 L 945.86 408.59 L 946.38 408.45 L 946.78 407.93 L 947.31 407.79 L 947.97 407.66 L 949.29 407.66 L 949.55 407.53 L 949.95 407.13 L 950.21 407.00 L 950.61 406.87 Z M 872.07 406.74 L 875.51 406.74 L 876.30 406.87 L 876.82 407.00 L 877.75 407.53 L 878.54 407.66 L 879.86 407.66 L 880.52 407.79 L 880.78 407.93 L 881.05 408.19 L 881.18 408.59 L 881.44 408.59 L 881.58 408.72 L 881.97 408.72 L 882.24 408.85 L 882.50 408.98 L 882.90 409.38 L 882.90 409.51 L 883.29 409.91 L 883.69 409.91 L 883.95 410.04 L 884.08 410.17 L 884.22 410.43 L 884.35 410.96 L 884.88 411.09 L 885.14 411.36 L 885.27 411.62 L 885.27 412.02 L 886.33 413.07 L 886.46 413.34 L 886.46 413.87 L 886.59 414.00 L 886.86 414.13 L 887.25 414.53 L 887.38 414.79 L 887.52 415.32 L 887.52 416.11 L 887.78 416.37 L 887.91 416.37 L 888.18 416.64 L 888.31 416.90 L 888.44 417.30 L 888.57 417.69 L 888.57 418.49 L 888.84 419.15 L 889.23 419.67 L 889.36 420.20 L 889.50 420.73 L 889.63 421.65 L 889.63 422.84 L 889.76 423.50 L 890.02 423.90 L 890.02 424.43 L 890.42 425.48 L 890.55 426.01 L 890.55 434.46 L 890.29 435.25 L 890.29 436.17 L 890.16 436.57 L 889.63 437.49 L 889.50 439.47 L 889.50 441.45 L 889.50 441.58 L 889.36 441.72 L 889.10 441.85 L 888.84 441.85 L 877.88 441.72 L 877.09 441.58 L 876.82 441.45 L 876.30 440.92 L 875.90 440.79 L 874.85 440.79 L 873.92 440.66 L 873.66 440.53 L 873.13 439.87 L 872.87 439.74 L 872.47 439.60 L 871.55 439.60 L 870.62 438.68 L 870.36 438.55 L 869.83 438.42 L 869.43 438.02 L 869.30 437.62 L 868.91 437.49 L 868.64 437.36 L 868.38 437.10 L 868.11 436.44 L 867.59 436.30 L 867.32 436.04 L 867.19 435.78 L 867.19 435.51 L 866.79 435.12 L 866.66 435.12 L 866.27 434.72 L 866.13 434.46 L 866.00 434.19 L 865.74 433.40 L 865.08 432.87 L 865.08 432.21 L 864.95 431.82 L 864.81 431.55 L 864.68 431.42 L 864.02 430.89 L 863.89 429.97 L 863.89 428.78 L 863.76 428.52 L 863.63 428.38 L 863.10 427.99 L 862.97 427.73 L 862.83 426.67 L 862.83 424.03 L 862.70 423.63 L 862.31 423.24 L 862.17 422.84 L 861.91 422.05 L 861.91 418.62 L 862.04 418.22 L 862.17 417.96 L 862.83 417.30 L 862.83 415.32 L 862.97 414.26 L 863.10 414.00 L 863.76 413.47 L 863.89 412.28 L 864.02 411.89 L 864.15 411.62 L 864.55 411.23 L 864.95 411.09 L 864.95 410.43 L 865.08 410.17 L 865.47 409.77 L 865.87 409.64 L 866.00 409.11 L 866.40 408.72 L 866.93 408.72 L 867.19 408.45 L 867.19 408.19 L 867.45 407.93 L 867.72 407.79 L 868.38 407.66 L 869.17 407.66 L 869.43 407.53 L 869.70 407.27 L 869.96 407.13 L 870.49 407.00 L 871.15 406.87 Z M 836.04 356.71 L 835.64 356.85 L 834.85 357.24 L 834.32 357.37 L 832.21 357.37 L 831.68 357.51 L 831.42 357.64 L 831.29 357.90 L 831.02 358.03 L 830.63 358.17 L 830.10 358.30 L 828.65 358.43 L 827.07 358.43 L 826.54 358.96 L 826.27 359.09 L 826.01 359.22 L 825.61 359.35 L 824.95 359.35 L 824.03 359.62 L 823.90 360.01 L 823.63 360.28 L 822.97 360.41 L 822.71 360.54 L 822.45 360.67 L 822.31 360.81 L 821.65 361.60 L 821.26 361.73 L 821.13 361.86 L 820.99 362.13 L 820.73 362.79 L 820.47 363.05 L 820.33 363.05 L 819.94 363.45 L 819.81 363.84 L 819.81 364.50 L 819.67 364.77 L 819.54 365.03 L 819.01 365.43 L 818.88 365.69 L 818.88 379.42 L 818.88 397.76 L 818.88 400.14 L 819.01 422.58 L 819.28 426.41 L 819.28 437.10 L 819.01 444.88 L 819.01 453.59 L 818.88 458.87 L 818.75 460.19 L 818.62 461.38 L 818.49 461.65 L 818.09 461.91 L 817.83 462.44 L 817.69 462.83 L 817.69 463.76 L 817.56 464.02 L 817.43 464.29 L 816.77 464.95 L 816.77 465.74 L 816.51 466.27 L 816.37 466.53 L 816.24 466.66 L 815.71 466.93 L 815.58 467.19 L 815.58 467.72 L 815.19 468.11 L 814.66 468.25 L 814.66 468.64 L 814.53 468.91 L 814.26 469.17 L 813.60 469.43 L 813.47 469.96 L 813.21 470.23 L 812.41 470.49 L 812.28 471.02 L 812.15 471.15 L 811.89 471.28 L 811.36 471.28 L 810.83 471.94 L 810.57 472.21 L 810.30 472.34 L 810.04 472.47 L 809.11 472.47 L 808.98 472.87 L 808.59 473.26 L 808.19 473.39 L 807.79 473.53 L 806.74 473.53 L 806.34 473.92 L 806.34 474.05 L 806.08 474.32 L 805.81 474.45 L 804.76 474.58 L 802.52 474.58 L 802.25 474.71 L 802.12 474.85 L 801.86 475.24 L 801.59 475.37 L 800.80 475.51 L 789.98 475.51 L 789.58 475.37 L 789.32 475.24 L 788.79 474.85 L 788.52 474.71 L 788.00 474.58 L 786.02 474.58 L 784.70 474.45 L 784.17 474.32 L 783.90 474.05 L 783.77 473.66 L 782.72 473.39 L 781.79 473.39 L 781.53 473.26 L 781.13 472.87 L 781.13 472.73 L 780.87 472.47 L 779.95 472.47 L 779.55 472.34 L 778.89 471.55 L 778.63 471.41 L 778.36 471.28 L 777.83 471.28 L 777.31 470.75 L 777.31 470.49 L 777.04 470.49 L 776.65 470.36 L 776.12 470.09 L 775.85 469.83 L 775.85 469.70 L 775.46 469.30 L 775.19 469.17 L 774.80 469.17 L 774.27 468.64 L 774.14 468.25 L 773.61 468.25 L 773.35 468.11 L 773.21 467.98 L 772.95 467.32 L 772.29 467.06 L 772.16 466.93 L 772.03 466.66 L 772.03 466.40 L 771.89 466.13 L 771.50 466.13 L 771.10 465.74 L 770.97 465.47 L 770.97 465.08 L 770.71 465.08 L 770.18 464.81 L 770.05 464.55 L 770.05 463.89 L 769.91 463.63 L 768.99 462.70 L 768.99 461.91 L 768.86 461.51 L 768.33 461.12 L 768.20 460.99 L 768.20 460.85 L 767.93 460.59 L 767.93 459.80 L 767.80 459.27 L 767.67 459.01 L 767.41 458.74 L 767.27 458.74 L 767.01 458.48 L 766.88 458.08 L 766.75 456.10 L 766.61 454.12 L 766.61 449.24 L 766.75 447.39 L 766.88 445.81 L 767.01 445.02 L 767.54 444.62 L 767.67 444.49 L 767.80 444.22 L 767.80 443.30 L 767.93 442.64 L 768.07 442.24 L 768.46 441.85 L 768.59 441.85 L 768.86 441.58 L 768.86 440.66 L 768.99 440.26 L 769.12 440.00 L 769.52 439.60 L 769.91 439.47 L 769.91 438.81 L 770.05 438.55 L 770.18 438.28 L 770.97 437.49 L 771.10 437.10 L 771.10 436.57 L 771.76 436.04 L 772.16 435.12 L 773.08 434.32 L 773.21 434.06 L 773.21 433.80 L 773.35 433.53 L 773.61 433.27 L 774.14 433.14 L 774.14 432.61 L 774.27 432.34 L 774.93 431.82 L 775.06 431.42 L 775.72 430.76 L 776.38 430.63 L 776.51 430.36 L 776.65 429.70 L 776.91 429.44 L 777.04 429.18 L 777.04 428.91 L 776.65 428.38 L 775.85 427.46 L 775.85 427.33 L 775.59 427.07 L 775.19 426.93 L 774.01 426.93 L 773.74 427.07 L 773.61 427.59 L 773.08 428.12 L 772.69 428.25 L 772.55 428.38 L 772.42 428.78 L 772.16 429.04 L 771.76 429.18 L 771.50 429.44 L 771.37 429.84 L 770.97 430.23 L 770.57 430.36 L 770.44 430.76 L 769.91 431.29 L 769.52 431.42 L 769.39 431.55 L 769.25 431.95 L 768.86 432.34 L 768.59 432.34 L 768.33 432.48 L 768.20 432.87 L 767.80 433.27 L 767.14 433.53 L 767.01 434.06 L 766.75 434.32 L 766.09 434.59 L 766.09 434.98 L 765.95 435.25 L 765.82 435.38 L 765.69 435.38 L 765.43 435.64 L 765.29 435.64 L 765.16 435.78 L 765.03 436.04 L 765.03 436.30 L 764.50 436.83 L 764.37 436.83 L 763.97 437.23 L 763.84 437.49 L 763.84 437.76 L 763.71 438.02 L 763.31 438.42 L 762.92 438.55 L 762.79 438.81 L 762.79 439.21 L 762.65 439.47 L 762.52 439.60 L 761.86 439.87 L 761.86 440.26 L 761.73 440.53 L 760.94 441.19 L 760.81 441.58 L 760.67 441.72 L 760.54 442.24 L 760.15 442.64 L 760.01 442.64 L 759.75 442.90 L 759.75 443.43 L 759.62 443.83 L 759.49 444.22 L 759.35 444.49 L 759.09 444.75 L 758.96 444.75 L 758.69 445.02 L 758.56 445.68 L 758.56 446.34 L 758.43 446.73 L 758.30 447.00 L 757.77 447.52 L 757.64 447.79 L 757.64 448.84 L 757.51 449.90 L 757.37 450.16 L 756.98 450.56 L 756.85 450.56 L 756.58 450.82 L 756.45 451.48 L 756.45 453.59 L 756.32 454.12 L 756.19 454.39 L 755.79 454.91 L 755.66 455.18 L 755.53 455.71 L 755.53 462.70 L 755.66 463.23 L 756.32 464.02 L 756.45 464.42 L 756.58 464.95 L 756.58 466.93 L 756.71 467.19 L 757.24 467.85 L 757.37 468.11 L 757.51 468.38 L 757.64 469.17 L 757.64 469.83 L 757.77 470.09 L 758.43 470.62 L 758.56 470.89 L 758.69 471.55 L 758.96 472.07 L 759.62 472.60 L 759.62 473.13 L 759.75 473.39 L 760.01 473.66 L 760.15 473.66 L 760.54 474.05 L 760.81 474.45 L 760.94 474.85 L 761.20 475.11 L 761.86 475.64 L 761.99 476.03 L 762.13 476.16 L 762.52 476.30 L 763.05 476.82 L 763.18 477.22 L 763.58 477.35 L 764.11 478.01 L 764.37 478.28 L 764.90 478.54 L 765.95 479.60 L 766.35 479.73 L 766.88 480.39 L 767.14 480.65 L 767.41 480.65 L 767.67 480.78 L 768.07 481.18 L 768.20 481.58 L 768.59 481.58 L 768.99 481.71 L 769.25 481.84 L 770.05 482.63 L 770.84 482.63 L 771.10 482.76 L 771.37 482.90 L 772.16 483.69 L 772.55 483.82 L 773.35 483.82 L 773.87 483.95 L 774.14 484.08 L 774.67 484.61 L 775.06 484.74 L 775.85 484.88 L 776.91 484.88 L 777.44 485.01 L 777.83 485.14 L 778.10 485.27 L 778.63 485.67 L 778.89 485.80 L 780.08 485.93 L 782.58 485.93 L 784.43 486.20 L 788.92 486.33 L 791.30 486.33 L 791.96 486.06 L 793.14 485.93 L 796.18 485.93 L 798.69 485.80 L 799.08 485.67 L 799.88 485.01 L 800.27 484.88 L 801.06 484.74 L 801.59 484.88 L 802.91 484.74 L 803.70 484.35 L 803.97 484.08 L 804.23 483.95 L 804.49 483.82 L 805.02 483.69 L 805.95 483.69 L 806.61 483.03 L 806.87 482.90 L 807.13 482.76 L 807.79 482.76 L 808.32 482.63 L 808.72 482.37 L 808.98 481.97 L 809.38 481.71 L 810.04 481.71 L 810.43 481.58 L 811.36 480.65 L 811.75 480.52 L 812.28 480.52 L 812.55 480.26 L 812.55 480.12 L 812.94 479.73 L 813.34 479.60 L 813.87 479.33 L 814.26 479.20 L 814.39 478.80 L 814.53 478.67 L 814.79 478.54 L 815.32 478.54 L 815.58 478.28 L 815.71 477.88 L 815.85 477.75 L 816.11 477.62 L 817.03 477.22 L 817.30 476.96 L 817.30 476.82 L 817.69 476.43 L 818.09 476.30 L 818.75 476.16 L 818.88 475.77 L 819.01 475.64 L 819.28 475.51 L 819.94 475.24 L 820.47 474.58 L 820.60 474.45 L 820.73 474.45 L 820.99 474.19 L 821.39 474.05 L 821.65 473.79 L 821.79 473.39 L 821.92 473.26 L 822.18 473.13 L 822.45 473.13 L 822.71 472.87 L 822.71 472.60 L 823.24 472.07 L 823.50 472.07 L 823.77 471.81 L 823.77 471.55 L 823.90 471.28 L 824.03 471.15 L 824.69 470.89 L 824.95 470.23 L 825.22 469.96 L 825.61 469.83 L 825.75 469.70 L 825.88 469.30 L 826.54 468.77 L 826.80 468.51 L 826.93 468.11 L 828.12 466.93 L 828.12 466.66 L 828.25 466.40 L 828.65 466.00 L 829.04 465.87 L 829.18 465.61 L 829.18 465.21 L 829.84 464.68 L 830.10 464.42 L 830.23 463.76 L 830.50 463.36 L 831.02 462.97 L 831.16 462.83 L 831.29 462.57 L 831.29 462.04 L 831.42 461.78 L 831.68 461.51 L 831.82 461.51 L 832.21 461.12 L 832.34 460.59 L 832.34 460.06 L 832.48 459.80 L 832.87 459.40 L 833.00 459.40 L 833.27 459.14 L 833.40 458.61 L 833.40 457.82 L 833.53 457.42 L 833.66 457.16 L 834.19 456.63 L 834.32 456.37 L 834.46 454.78 L 834.59 454.25 L 834.72 453.86 L 834.85 453.59 L 835.12 453.33 L 835.25 453.07 L 835.38 452.54 L 835.38 451.22 L 835.51 450.30 L 835.64 449.77 L 835.78 449.24 L 836.17 448.58 L 836.30 448.18 L 836.44 447.13 L 836.70 445.02 L 836.83 443.70 L 836.96 441.85 L 836.96 437.23 L 837.23 435.78 L 837.10 424.03 L 837.10 422.18 L 837.36 415.32 L 837.23 414.39 L 837.36 405.42 L 837.23 395.52 L 837.49 384.30 L 837.36 362.39 L 837.49 359.88 L 837.49 357.77 L 837.36 357.37 L 837.23 357.11 L 836.96 356.85 L 836.70 356.71 Z" fill="#000000" fill-rule="evenodd"/>
</svg>
